/* XPM */
static char *obstacle[] = {
/* columns rows colors chars-per-pixel */
"96 99 16 1 ",
"  c None",
". c #473023",
"X c #604330",
"o c #75513A",
"O c #7F573F",
"+ c #3B5777",
"@ c #48617E",
"# c #936A51",
"$ c #A37A61",
"% c #B2856B",
"& c #CC997A",
"* c #576B85",
"= c #61748E",
"- c #697C96",
"; c #8A96AA",
": c #E5AC89",
/* pixels */
"                                                                                                ",
"                                                                                                ",
"                                                                                                ",
"                                                                                                ",
"                                                                                                ",
"                                                                                                ",
"                                                                                                ",
"                                                                                                ",
"                                                                                                ",
"                                                                                                ",
"                                                                                                ",
"                                                                                                ",
"                                                                                                ",
"                                                                                                ",
"                                                                                                ",
"                                                                                                ",
"                                                                                                ",
"                                                                                                ",
"                                                                                                ",
"                                                                                                ",
"                                                                                                ",
"                                                                                                ",
"                                                                                                ",
"                         XXXooooooooo                        XXXooooooooo                       ",
"                         XXXooooooooo                        XXXooooooooo                       ",
"                         XXXooooooooo                        XXXooooooooo                       ",
"                      XXX%%%%%%&&&&&&ooo                  XXX%%%%%%&&&&&&ooo                    ",
"                      XXX%%%%%%&&&&&&ooo                  XXX%%%%%%&&&&&&ooo                    ",
"                      XXX%%%%%%&&&&&&ooo                  XXX%%%%%%&&&&&&ooo                    ",
"                   XXX%%%$$$$$$$$$$$$&&&ooo            XXX%%%$$$$$$$$$$$$&&&ooo                 ",
"                   XXX%%%$$$$$$$$$$$$&&&ooo            XXX%%%$$$$$$$$$$$$&&&ooo                 ",
"                   XXX%%%$$$$$$$$$$$$&&&ooo            XXX%%%$$$$$$$$$$$$&&&ooo                 ",
"                XXX%%%$$$############$$$&&&ooo      XXX%%%$$$############$$$&&&ooo              ",
"                XXX%%%$$$############$$$&&&ooo      XXX%%%$$$############$$$&&&ooo              ",
"                XXX%%%$$$############$$$&&&ooo      XXX%%%$$$############$$$&&&ooo              ",
"                XXX%%%###XXXXXXXXXXXX###:::XXXooooooooo%%%###XXXXXXXXXXXX###:::XXX              ",
"                XXX%%%###XXXXXXXXXXXX###:::XXXooooooooo%%%###XXXXXXXXXXXX###:::XXX              ",
"                XXX%%%###XXXXXXXXXXXX###:::XXXooooooooo%%%###XXXXXXXXXXXX###:::XXX              ",
"                ...OOO%%%XXXXXXXXXXXX:::XXX%%%%%%&&&&&&ooo%%%XXXXXXXXXXXX:::###...              ",
"                ...OOO%%%XXXXXXXXXXXX:::XXX%%%%%%&&&&&&ooo%%%XXXXXXXXXXXX:::###...              ",
"                ...OOO%%%XXXXXXXXXXXX:::XXX%%%%%%&&&&&&ooo%%%XXXXXXXXXXXX:::###...              ",
"             ...OOOOOOOOO%%%%%%::::::XXX%%%$$$$$$$$$$$$&&&ooo%%%%%%::::::###$$$$$$XXX           ",
"             ...OOOOOOOOO%%%%%%::::::XXX%%%$$$$$$$$$$$$&&&ooo%%%%%%::::::###$$$$$$XXX           ",
"             ...OOOOOOOOO%%%%%%::::::XXX%%%$$$$$$$$$$$$&&&ooo%%%%%%::::::###$$$$$$XXX           ",
"             +++OOO###$$$OOOOOOOOOXXX%%%$$$############$$$&&&oooOOOOOO###$$$$$$$$$@@@           ",
"             +++OOO###$$$OOOOOOOOOXXX%%%$$$############$$$&&&oooOOOOOO###$$$$$$$$$@@@           ",
"             +++OOO###$$$OOOOOOOOOXXX%%%$$$############$$$&&&oooOOOOOO###$$$$$$$$$@@@           ",
"             +++***###$$$$$$$$$$$$XXX%%%###XXXXXXXXXXXX###:::XXX$$$$$$::::::$$$---@@@           ",
"             +++***###$$$$$$$$$$$$XXX%%%###XXXXXXXXXXXX###:::XXX$$$$$$::::::$$$---@@@           ",
"             +++***###$$$$$$$$$$$$XXX%%%###XXXXXXXXXXXX###:::XXX$$$$$$::::::$$$---@@@           ",
"             +++***======---------...OOO%%%XXXXXXXXXXXX:::###...------;;;;;;------+++           ",
"             +++***======---------...OOO%%%XXXXXXXXXXXX:::###...------;;;;;;------+++           ",
"             +++***======---------...OOO%%%XXXXXXXXXXXX:::###...------;;;;;;------+++           ",
"                +++***=========...OOOOOOOOO%%%%%%::::::###$$$$$$XXX===---------+++              ",
"                +++***=========...OOOOOOOOO%%%%%%::::::###$$$$$$XXX===---------+++              ",
"                +++***=========...OOOOOOOOO%%%%%%::::::###$$$$$$XXX===---------+++              ",
"                   +++***======+++OOO###$$$OOOOOOOOO###$$$$$$$$$@@@======---+++                 ",
"                   +++***======+++OOO###$$$OOOOOOOOO###$$$$$$$$$@@@======---+++                 ",
"                   +++***======+++OOO###$$$OOOOOOOOO###$$$$$$$$$@@@======---+++                 ",
"                               +++***###$$$$$$$$$$$$::::::$$$---@@@                             ",
"                               +++***###$$$$$$$$$$$$::::::$$$---@@@                             ",
"                               +++***###$$$$$$$$$$$$::::::$$$---@@@                             ",
"                               +++***======---------;;;;;;------+++                             ",
"                               +++***======---------;;;;;;------+++                             ",
"                               +++***======---------;;;;;;------+++                             ",
"                                  +++***============---------+++                                ",
"                                  +++***============---------+++                                ",
"                                  +++***============---------+++                                ",
"                                     +++***============---+++                                   ",
"                                     +++***============---+++                                   ",
"                                     +++***============---+++                                   ",
"                                                                                                ",
"                                                                                                ",
"                                                                                                ",
"                                                                                                ",
"                                                                                                ",
"                                                                                                ",
"                                                                                                ",
"                                                                                                ",
"                                                                                                ",
"                                                                                                ",
"                                                                                                ",
"                                                                                                ",
"                                                                                                ",
"                                                                                                ",
"                                                                                                ",
"                                                                                                ",
"                                                                                                ",
"                                                                                                ",
"                                                                                                ",
"                                                                                                ",
"                                                                                                ",
"                                                                                                ",
"                                                                                                ",
"                                                                                                ",
"                                                                                                ",
"                                                                                                ",
"                                                                                                ",
"                                                                                                "
};
