/* XPM */
static char *collectible[] = {
/* columns rows colors chars-per-pixel */
"96 99 16 1 ",
"  c #473023",
". c #604330",
"X c #75513A",
"o c #7F573F",
"O c #3B5777",
"+ c #48617E",
"@ c #936A51",
"# c #A37A61",
"$ c #B2856B",
"% c #CC997A",
"& c #576B85",
"* c #61748E",
"= c #697C96",
"- c #8A96AA",
"; c #A9A9A9",
": c #E5AC89",
/* pixels */
";;;;;;;;;;;;;;;;;;;;;;;;;;;;;;;;;;;;;;;;;;;;;;;;;;;;;;;;;;;;;;;;;;;;;;;;;;;;;;;;;;;;;;;;;;;;;;;;",
";;;;;;;;;;;;;;;;;;;;;;;;;;;;;;;;;;;;;;;;;;;;;;;;;;;;;;;;;;;;;;;;;;;;;;;;;;;;;;;;;;;;;;;;;;;;;;;;",
";;;;;;;;;;;;;;;;;;;;;;;;;;;;;;;;;;;;;;;;;;;;;;;;;;;;;;;;;;;;;;;;;;;;;;;;;;;;;;;;;;;;;;;;;;;;;;;;",
";;;;;;;;;;;;;;;;;;;;;;;;;;;;;;;;;;;;;;;;;;;;;;;;;;;;;;;;;;;;;;;;;;;;;;;;;;;;;;;;;;;;;;;;;;;;;;;;",
";;;;;;;;;;;;;;;;;;;;;;;;;;;;;;;;;;;;;;;;;;;;;;;;;;;;;;;;;;;;;;;;;;;;;;;;;;;;;;;;;;;;;;;;;;;;;;;;",
";;;;;;;;;;;;;;;;;;;;;;;;;;;;;;;;;;;;;;;;;;;;;;;;;;;;;;;;;;;;;;;;;;;;;;;;;;;;;;;;;;;;;;;;;;;;;;;;",
";;;;;;;;;;;;;;;;;;;;;;;;;;;;;;;;;;;;;;;;;;;;;;;;;;;;;;;;;;;;;;;;;;;;;;;;;;;;;;;;;;;;;;;;;;;;;;;;",
";;;;;;;;;;;;;;;;;;;;;;;;;;;;;;;;;;;;;;;;;;;;;;;;;;;;;;;;;;;;;;;;;;;;;;;;;;;;;;;;;;;;;;;;;;;;;;;;",
";;;;;;;;;;;;;;;;;;;;;;;;;;;;;;;;;;;;;;;;;;;;;;;;;;;;;;;;;;;;;;;;;;;;;;;;;;;;;;;;;;;;;;;;;;;;;;;;",
";;;;;;;;;;;;;;;;;;;;;;;;;;;;;;;;;;;;;;;;;;;;;;;;;;;;;;;;;;;;;;;;;;;;;;;;;;;;;;;;;;;;;;;;;;;;;;;;",
";;;;;;;;;;;;;;;;;;;;;;;;;;;;;;;;;;;;;;;;;;;;;;;;;;;;;;;;;;;;;;;;;;;;;;;;;;;;;;;;;;;;;;;;;;;;;;;;",
";;;;;;;;;;;;;;;;;;;;;;;;;;;;;;;;;;;;;;;;;;;;;;;;;;;;;;;;;;;;;;;;;;;;;;;;;;;;;;;;;;;;;;;;;;;;;;;;",
";;;;;;;;;;;;;;;;;;;;;;;;;;;;;;;;;;;;;;;;;;;;;;;;;;;;;;;;;;;;;;;;;;;;;;;;;;;;;;;;;;;;;;;;;;;;;;;;",
";;;;;;;;;;;;;;;;;;;;;;;;;;;;;;;;;;;;;;;;;;;;;;;;;;;;;;;;;;;;;;;;;;;;;;;;;;;;;;;;;;;;;;;;;;;;;;;;",
";;;;;;;;;;;;;;;;;;;;;;;;;;;;;;;;;;;;;;;;;;;;;;;;;;;;;;;;;;;;;;;;;;;;;;;;;;;;;;;;;;;;;;;;;;;;;;;;",
";;;;;;;;;;;;;;;;;;;;;;;;;;;;;;;;;;;;;;;;;;;;;;;;;;;;;;;;;;;;;;;;;;;;;;;;;;;;;;;;;;;;;;;;;;;;;;;;",
";;;;;;;;;;;;;;;;;;;;;;;;;;;;;;;;;;;;;;;;;;;;;;;;;;;;;;;;;;;;;;;;;;;;;;;;;;;;;;;;;;;;;;;;;;;;;;;;",
";;;;;;;;;;;;;;;;;;;;;;;;;;;;;;;;;;;;;;;;;;;;;;;;;;;;;;;;;;;;;;;;;;;;;;;;;;;;;;;;;;;;;;;;;;;;;;;;",
";;;;;;;;;;;;;;;;;;;;;;;;;;;;;;;;;;;;;;;;;;;;;;;;;;;;;;;;;;;;;;;;;;;;;;;;;;;;;;;;;;;;;;;;;;;;;;;;",
";;;;;;;;;;;;;;;;;;;;;;...XXXXXXXXXXX;;;;;;;;;;;;;;;;;;;;;;;;;;;...XXXXXXXXXX;;;;;;;;;;;;;;;;;;;;",
";;;;;;;;;;;;;;;;;;;;;;...XXXXXXXXXXX;;;;;;;;;;;;;;;;;;;;;;;;;;;...XXXXXXXXXX;;;;;;;;;;;;;;;;;;;;",
";;;;;;;;;;;;;;;;;;;;;;...XXXXXXXXXXX;;;;;;;;;;;;;;;;;;;;;;;;;;;...XXXXXXXXXX;;;;;;;;;;;;;;;;;;;;",
";;;;;;;;;;;;;;;;;;;...$$$$$$$%%%%%%%XXX;;;;;;;;;;;;;;;;;;;;....$$$$$$$%%%%%%XXXX;;;;;;;;;;;;;;;;",
";;;;;;;;;;;;;;;;;;;...$$$$$$$%%%%%%%XXX;;;;;;;;;;;;;;;;;;;;....$$$$$$$%%%%%%XXXX;;;;;;;;;;;;;;;;",
";;;;;;;;;;;;;;;;;;;...$$$$$$$%%%%%%%XXX;;;;;;;;;;;;;;;;;;;;....$$$$$$$%%%%%%XXXX;;;;;;;;;;;;;;;;",
";;;;;;;;;;;;;;;;;;;...$$$$$$$%%%%%%%XXX;;;;;;;;;;;;;;;;;;;;....$$$$$$$%%%%%%XXXX;;;;;;;;;;;;;;;;",
";;;;;;;;;;;;;;;....$$$##############%%%XXX;;;;;;;;;;;;;;...$$$$#############%%%%XXX;;;;;;;;;;;;;",
";;;;;;;;;;;;;;;....$$$##############%%%XXX;;;;;;;;;;;;;;...$$$$#############%%%%XXX;;;;;;;;;;;;;",
";;;;;;;;;;;;;;;....$$$##############%%%XXX;;;;;;;;;;;;;;...$$$$#############%%%%XXX;;;;;;;;;;;;;",
";;;;;;;;;;;;...$$$$###@@@@@@@@@@@@@@###%%%XXXX;;;;;;;...$$$####@@@@@@@@@@@@@####%%%XXX;;;;;;;;;;",
";;;;;;;;;;;;...$$$$###@@@@@@@@@@@@@@###%%%XXXX;;;;;;;...$$$####@@@@@@@@@@@@@####%%%XXX;;;;;;;;;;",
";;;;;;;;;;;;...$$$$###@@@@@@@@@@@@@@###%%%XXXX;;;;;;;...$$$####@@@@@@@@@@@@@####%%%XXX;;;;;;;;;;",
";;;;;;;;;;;;...$$$$###@@@@@@@@@@@@@@###%%%XXXX;;;;;;;...$$$####@@@@@@@@@@@@@####%%%XXX;;;;;;;;;;",
";;;;;;;;;;;;...$$$$@@@..............@@@:::....XXXXXXXXXX$$$@@@@.............@@@@:::...;;;;;;;;;;",
";;;;;;;;;;;;...$$$$@@@..............@@@:::....XXXXXXXXXX$$$@@@@.............@@@@:::...;;;;;;;;;;",
";;;;;;;;;;;;...$$$$@@@..............@@@:::....XXXXXXXXXX$$$@@@@.............@@@@:::...;;;;;;;;;;",
";;;;;;;;;;;;   oooo$$$..............:::...$$$$$$$%%%%%%%XXX$$$$.............::::@@@   ;;;;;;;;;;",
";;;;;;;;;;;;   oooo$$$..............:::...$$$$$$$%%%%%%%XXX$$$$.............::::@@@   ;;;;;;;;;;",
";;;;;;;;;;;;   oooo$$$..............:::...$$$$$$$%%%%%%%XXX$$$$.............::::@@@   ;;;;;;;;;;",
";;;;;;;;;   oooooooooo$$$$$$$:::::::...$$$##############%%%XXXX$$$$$$$::::::@@@@######....;;;;;;",
";;;;;;;;;   oooooooooo$$$$$$$:::::::...$$$##############%%%XXXX$$$$$$$::::::@@@@######....;;;;;;",
";;;;;;;;;   oooooooooo$$$$$$$:::::::...$$$##############%%%XXXX$$$$$$$::::::@@@@######....;;;;;;",
";;;;;;;;;   oooooooooo$$$$$$$:::::::...$$$##############%%%XXXX$$$$$$$::::::@@@@######....;;;;;;",
";;;;;;;;;OOOooo@@@@###oooooooooo....$$$###@@@@@@@@@@@@@@###%%%%XXXooooooo@@@##########++++;;;;;;",
";;;;;;;;;OOOooo@@@@###oooooooooo....$$$###@@@@@@@@@@@@@@###%%%%XXXooooooo@@@##########++++;;;;;;",
";;;;;;;;;OOOooo@@@@###oooooooooo....$$$###@@@@@@@@@@@@@@###%%%%XXXooooooo@@@##########++++;;;;;;",
";;;;;;;;;OOO&&&@@@@#############....$$$@@@..............@@@::::...#######:::::::###===++++;;;;;;",
";;;;;;;;;OOO&&&@@@@#############....$$$@@@..............@@@::::...#######:::::::###===++++;;;;;;",
";;;;;;;;;OOO&&&@@@@#############....$$$@@@..............@@@::::...#######:::::::###===++++;;;;;;",
";;;;;;;;;OOO&&&@@@@#############....$$$@@@..............@@@::::...#######:::::::###===++++;;;;;;",
";;;;;;;;;OOO&&&*******==========    ooo$$$..............:::@@@@   =======-------======OOOO;;;;;;",
";;;;;;;;;OOO&&&*******==========    ooo$$$..............:::@@@@   =======-------======OOOO;;;;;;",
";;;;;;;;;OOO&&&*******==========    ooo$$$..............:::@@@@   =======-------======OOOO;;;;;;",
";;;;;;;;;;;;OOO&&&&**********   oooooooooo$$$$$$$:::::::@@@#######....***==========OOO;;;;;;;;;;",
";;;;;;;;;;;;OOO&&&&**********   oooooooooo$$$$$$$:::::::@@@#######....***==========OOO;;;;;;;;;;",
";;;;;;;;;;;;OOO&&&&**********   oooooooooo$$$$$$$:::::::@@@#######....***==========OOO;;;;;;;;;;",
";;;;;;;;;;;;;;;OOOO&&&*******OOOoooo@@@###ooooooooooo@@@##########++++******====OOO;;;;;;;;;;;;;",
";;;;;;;;;;;;;;;OOOO&&&*******OOOoooo@@@###ooooooooooo@@@##########++++******====OOO;;;;;;;;;;;;;",
";;;;;;;;;;;;;;;OOOO&&&*******OOOoooo@@@###ooooooooooo@@@##########++++******====OOO;;;;;;;;;;;;;",
";;;;;;;;;;;;;;;OOOO&&&*******OOOoooo@@@###ooooooooooo@@@##########++++******====OOO;;;;;;;;;;;;;",
";;;;;;;;;;;;;;;;;;;;;;;;;;;;;OOO&&&&@@@##############::::::####===++++;;;;;;;;;;;;;;;;;;;;;;;;;;",
";;;;;;;;;;;;;;;;;;;;;;;;;;;;;OOO&&&&@@@##############::::::####===++++;;;;;;;;;;;;;;;;;;;;;;;;;;",
";;;;;;;;;;;;;;;;;;;;;;;;;;;;;OOO&&&&@@@##############::::::####===++++;;;;;;;;;;;;;;;;;;;;;;;;;;",
";;;;;;;;;;;;;;;;;;;;;;;;;;;;;OOO&&&&******===========------=======OOOO;;;;;;;;;;;;;;;;;;;;;;;;;;",
";;;;;;;;;;;;;;;;;;;;;;;;;;;;;OOO&&&&******===========------=======OOOO;;;;;;;;;;;;;;;;;;;;;;;;;;",
";;;;;;;;;;;;;;;;;;;;;;;;;;;;;OOO&&&&******===========------=======OOOO;;;;;;;;;;;;;;;;;;;;;;;;;;",
";;;;;;;;;;;;;;;;;;;;;;;;;;;;;OOO&&&&******===========------=======OOOO;;;;;;;;;;;;;;;;;;;;;;;;;;",
";;;;;;;;;;;;;;;;;;;;;;;;;;;;;;;;OOOO&&&**************==========OOO;;;;;;;;;;;;;;;;;;;;;;;;;;;;;;",
";;;;;;;;;;;;;;;;;;;;;;;;;;;;;;;;OOOO&&&**************==========OOO;;;;;;;;;;;;;;;;;;;;;;;;;;;;;;",
";;;;;;;;;;;;;;;;;;;;;;;;;;;;;;;;OOOO&&&**************==========OOO;;;;;;;;;;;;;;;;;;;;;;;;;;;;;;",
";;;;;;;;;;;;;;;;;;;;;;;;;;;;;;;;;;;;OOO&&&**************===OOOO;;;;;;;;;;;;;;;;;;;;;;;;;;;;;;;;;",
";;;;;;;;;;;;;;;;;;;;;;;;;;;;;;;;;;;;OOO&&&**************===OOOO;;;;;;;;;;;;;;;;;;;;;;;;;;;;;;;;;",
";;;;;;;;;;;;;;;;;;;;;;;;;;;;;;;;;;;;OOO&&&**************===OOOO;;;;;;;;;;;;;;;;;;;;;;;;;;;;;;;;;",
";;;;;;;;;;;;;;;;;;;;;;;;;;;;;;;;;;;;;;;;;;;;;;;;;;;;;;;;;;;;;;;;;;;;;;;;;;;;;;;;;;;;;;;;;;;;;;;;",
";;;;;;;;;;;;;;;;;;;;;;;;;;;;;;;;;;;;;;;;;;;;;;;;;;;;;;;;;;;;;;;;;;;;;;;;;;;;;;;;;;;;;;;;;;;;;;;;",
";;;;;;;;;;;;;;;;;;;;;;;;;;;;;;;;;;;;;;;;;;;;;;;;;;;;;;;;;;;;;;;;;;;;;;;;;;;;;;;;;;;;;;;;;;;;;;;;",
";;;;;;;;;;;;;;;;;;;;;;;;;;;;;;;;;;;;;;;;;;;;;;;;;;;;;;;;;;;;;;;;;;;;;;;;;;;;;;;;;;;;;;;;;;;;;;;;",
";;;;;;;;;;;;;;;;;;;;;;;;;;;;;;;;;;;;;;;;;;;;;;;;;;;;;;;;;;;;;;;;;;;;;;;;;;;;;;;;;;;;;;;;;;;;;;;;",
";;;;;;;;;;;;;;;;;;;;;;;;;;;;;;;;;;;;;;;;;;;;;;;;;;;;;;;;;;;;;;;;;;;;;;;;;;;;;;;;;;;;;;;;;;;;;;;;",
";;;;;;;;;;;;;;;;;;;;;;;;;;;;;;;;;;;;;;;;;;;;;;;;;;;;;;;;;;;;;;;;;;;;;;;;;;;;;;;;;;;;;;;;;;;;;;;;",
";;;;;;;;;;;;;;;;;;;;;;;;;;;;;;;;;;;;;;;;;;;;;;;;;;;;;;;;;;;;;;;;;;;;;;;;;;;;;;;;;;;;;;;;;;;;;;;;",
";;;;;;;;;;;;;;;;;;;;;;;;;;;;;;;;;;;;;;;;;;;;;;;;;;;;;;;;;;;;;;;;;;;;;;;;;;;;;;;;;;;;;;;;;;;;;;;;",
";;;;;;;;;;;;;;;;;;;;;;;;;;;;;;;;;;;;;;;;;;;;;;;;;;;;;;;;;;;;;;;;;;;;;;;;;;;;;;;;;;;;;;;;;;;;;;;;",
";;;;;;;;;;;;;;;;;;;;;;;;;;;;;;;;;;;;;;;;;;;;;;;;;;;;;;;;;;;;;;;;;;;;;;;;;;;;;;;;;;;;;;;;;;;;;;;;",
";;;;;;;;;;;;;;;;;;;;;;;;;;;;;;;;;;;;;;;;;;;;;;;;;;;;;;;;;;;;;;;;;;;;;;;;;;;;;;;;;;;;;;;;;;;;;;;;",
";;;;;;;;;;;;;;;;;;;;;;;;;;;;;;;;;;;;;;;;;;;;;;;;;;;;;;;;;;;;;;;;;;;;;;;;;;;;;;;;;;;;;;;;;;;;;;;;",
";;;;;;;;;;;;;;;;;;;;;;;;;;;;;;;;;;;;;;;;;;;;;;;;;;;;;;;;;;;;;;;;;;;;;;;;;;;;;;;;;;;;;;;;;;;;;;;;",
";;;;;;;;;;;;;;;;;;;;;;;;;;;;;;;;;;;;;;;;;;;;;;;;;;;;;;;;;;;;;;;;;;;;;;;;;;;;;;;;;;;;;;;;;;;;;;;;",
";;;;;;;;;;;;;;;;;;;;;;;;;;;;;;;;;;;;;;;;;;;;;;;;;;;;;;;;;;;;;;;;;;;;;;;;;;;;;;;;;;;;;;;;;;;;;;;;",
";;;;;;;;;;;;;;;;;;;;;;;;;;;;;;;;;;;;;;;;;;;;;;;;;;;;;;;;;;;;;;;;;;;;;;;;;;;;;;;;;;;;;;;;;;;;;;;;",
";;;;;;;;;;;;;;;;;;;;;;;;;;;;;;;;;;;;;;;;;;;;;;;;;;;;;;;;;;;;;;;;;;;;;;;;;;;;;;;;;;;;;;;;;;;;;;;;",
";;;;;;;;;;;;;;;;;;;;;;;;;;;;;;;;;;;;;;;;;;;;;;;;;;;;;;;;;;;;;;;;;;;;;;;;;;;;;;;;;;;;;;;;;;;;;;;;",
";;;;;;;;;;;;;;;;;;;;;;;;;;;;;;;;;;;;;;;;;;;;;;;;;;;;;;;;;;;;;;;;;;;;;;;;;;;;;;;;;;;;;;;;;;;;;;;;",
";;;;;;;;;;;;;;;;;;;;;;;;;;;;;;;;;;;;;;;;;;;;;;;;;;;;;;;;;;;;;;;;;;;;;;;;;;;;;;;;;;;;;;;;;;;;;;;;",
";;;;;;;;;;;;;;;;;;;;;;;;;;;;;;;;;;;;;;;;;;;;;;;;;;;;;;;;;;;;;;;;;;;;;;;;;;;;;;;;;;;;;;;;;;;;;;;;",
";;;;;;;;;;;;;;;;;;;;;;;;;;;;;;;;;;;;;;;;;;;;;;;;;;;;;;;;;;;;;;;;;;;;;;;;;;;;;;;;;;;;;;;;;;;;;;;;",
";;;;;;;;;;;;;;;;;;;;;;;;;;;;;;;;;;;;;;;;;;;;;;;;;;;;;;;;;;;;;;;;;;;;;;;;;;;;;;;;;;;;;;;;;;;;;;;;",
";;;;;;;;;;;;;;;;;;;;;;;;;;;;;;;;;;;;;;;;;;;;;;;;;;;;;;;;;;;;;;;;;;;;;;;;;;;;;;;;;;;;;;;;;;;;;;;;",
";;;;;;;;;;;;;;;;;;;;;;;;;;;;;;;;;;;;;;;;;;;;;;;;;;;;;;;;;;;;;;;;;;;;;;;;;;;;;;;;;;;;;;;;;;;;;;;;"
};
