/* XPM */
static char *collectible[] = {
/* columns rows colors chars-per-pixel */
"96 99 17 1 ",
"  c #2C2C2C",
". c #473023",
"X c #604330",
"o c #75513A",
"O c #7F573F",
"+ c #3B5777",
"@ c #48617E",
"# c #936A51",
"$ c #A37A61",
"% c #B2856B",
"& c #CC997A",
"* c #576B85",
"= c #61748E",
"- c #697C96",
"; c #8A96AA",
": c #A9A9A9",
"> c #E5AC89",
/* pixels */
"::::::::::::::::::::::::::::::::::::::::::::::::::::::::::::::::::::::::::::::::::::::::::::::::",
"::::::::::::::::::::::::::::::::::::::::::::::::::::::::::::::::::::::::::::::::::::::::::::::::",
"::::::::::::::::::::::::::::::::::::::::::::::::::::::::::::::::::::::::::::::::::::::::::::::::",
"::::::::::::::::::::::::::::::::::::::::::::::::::::::::::::::::::::::::::::::::::::::::::::::::",
"::::::::::::::::::::::::::::::::::::::::::::::::::::::::::::::::::::::::::::::::::::::::::::::::",
"::::::::::::::::::::::::::::::::::::::::::::::::::::::::::::::::::::::::::::::::::::::::::::::::",
"::::::::::::::::::::::::::::::::::::::::::::::::::::::::::::::::::::::::::::::::::::::::::::::::",
"::::::::::::::::::::::::::::::::::::::::::::::::::::::::::::::::::::::::::::::::::::::::::::::::",
"::::::::::::::::::::::::::::::::::::::::::::::::::::::::::::::::::::::::::::::::::::::::::::::::",
"::::::::::::::::::::::::::::::::::::::::::::::::::::::::::::::::::::::::::::::::::::::::::::::::",
"::::::::::::::::::::::::::::::::::::::::::::::::::::::::::::::::::::::::::::::::::::::::::::::::",
"::::::::::::::::::::::::::::::::::::::::::::::::::::::::::::::::::::::::::::::::::::::::::::::::",
"::::::::::::::::::::::::::::::::::::::::::::::::::::::::::::::::::::::::::::::::::::::::::::::::",
"::::::::::::::::::::::::::::::::::::::::::::::::::::::::::::::::::::::::::::::::::::::::::::::::",
"::::::::::::::::::::::::::::::::::::::::::::::::::::::::::::::::::::::::::::::::::::::::::::::::",
"::::::::::::::::::::::::::::::::::::::::::::::::::::::::::::::::::::::::::::::::::::::::::::::::",
"::::::::::::::::::::::::::::::::::::::::::::::::::::::::::::::::::::::::::::::::::::::::::::::::",
"::::::::::::::::::::::::::::::::::::::::::::::::::::::::::::::::::::::::::::::::::::::::::::::::",
"::::::::::::::::::::::::::::::::::::::::::::::::::::::::::::::::::::::::::::::::::::::::::::::::",
"::::::::::::::::::::::XXXooooooooooo:::::::::::::::::::::::::::XXXoooooooooo::::::::::::::::::::",
"::::::::::::::::::::::XXXooooooooooo:::::::::::::::::::::::::::XXXoooooooooo::::::::::::::::::::",
"::::::::::::::::::::::XXXooooooooooo:::::::::::::::::::::::::::XXXoooooooooo::::::::::::::::::::",
":::::::::::::::::::XXX%%%%%%%&&&&&&&ooo::::::::::::::::::::XXXX%%%%%%%&&&&&&oooo::::::::::::::::",
":::::::::::::::::::XXX%%%%%%%&&&&&&&ooo::::::::::::::::::::XXXX%%%%%%%&&&&&&oooo::::::::::::::::",
":::::::::::::::::::XXX%%%%%%%&&&&&&&ooo::::::::::::::::::::XXXX%%%%%%%&&&&&&oooo::::::::::::::::",
":::::::::::::::::::XXX%%%%%%%&&&&&&&ooo::::::::::::::::::::XXXX%%%%%%%&&&&&&oooo::::::::::::::::",
":::::::::::::::XXXX%%%$$$$$$$$$$$$$$&&&ooo::::::::::::::XXX%%%%$$$$$$$$$$$$$&&&&ooo:::::::::::::",
":::::::::::::::XXXX%%%$$$$$$$$$$$$$$&&&ooo::::::::::::::XXX%%%%$$$$$$$$$$$$$&&&&ooo:::::::::::::",
":::::::::::::::XXXX%%%$$$$$$$$$$$$$$&&&ooo::::::::::::::XXX%%%%$$$$$$$$$$$$$&&&&ooo:::::::::::::",
"::::::::::::XXX%%%%$$$##############$$$&&&oooo:::::::XXX%%%$$$$#############$$$$&&&ooo::::::::::",
"::::::::::::XXX%%%%$$$##############$$$&&&oooo:::::::XXX%%%$$$$#############$$$$&&&ooo::::::::::",
"::::::::::::XXX%%%%$$$##############$$$&&&oooo:::::::XXX%%%$$$$#############$$$$&&&ooo::::::::::",
"::::::::::::XXX%%%%$$$##############$$$&&&oooo:::::::XXX%%%$$$$#############$$$$&&&ooo::::::::::",
"::::::::::::XXX%%%%###XXXXXXXXXXXXXX###>>>XXXXoooooooooo%%%####XXXXXXXXXXXXX####>>>XXX::::::::::",
"::::::::::::XXX%%%%###XXXXXXXXXXXXXX###>>>XXXXoooooooooo%%%####XXXXXXXXXXXXX####>>>XXX::::::::::",
"::::::::::::XXX%%%%###XXXXXXXXXXXXXX###>>>XXXXoooooooooo%%%####XXXXXXXXXXXXX####>>>XXX::::::::::",
"::::::::::::...OOOO%%%XXXXXXXXXXXXXX>>>XXX%%%%%%%&&&&&&&ooo%%%%XXXXXXXXXXXXX>>>>###...::::::::::",
"::::::::::::...OOOO%%%XXXXXXXXXXXXXX>>>XXX%%%%%%%&&&&&&&ooo%%%%XXXXXXXXXXXXX>>>>###...::::::::::",
"::::::::::::...OOOO%%%XXXXXXXXXXXXXX>>>XXX%%%%%%%&&&&&&&ooo%%%%XXXXXXXXXXXXX>>>>###...::::::::::",
":::::::::...OOOOOOOOOO%%%%%%%>>>>>>>XXX%%%$$$$$$$$$$$$$$&&&oooo%%%%%%%>>>>>>####$$$$$$XXXX::::::",
":::::::::...OOOOOOOOOO%%%%%%%>>>>>>>XXX%%%$$$$$$$$$$$$$$&&&oooo%%%%%%%>>>>>>####$$$$$$XXXX::::::",
":::::::::...OOOOOOOOOO%%%%%%%>>>>>>>XXX%%%$$$$$$$$$$$$$$&&&oooo%%%%%%%>>>>>>####$$$$$$XXXX::::::",
":::::::::...OOOOOOOOOO%%%%%%%>>>>>>>XXX%%%$$$$$$$$$$$$$$&&&oooo%%%%%%%>>>>>>####$$$$$$XXXX::::::",
":::::::::+++OOO####$$$OOOOOOOOOOXXXX%%%$$$##############$$$&&&&oooOOOOOOO###$$$$$$$$$$@@@@::::::",
":::::::::+++OOO####$$$OOOOOOOOOOXXXX%%%$$$##############$$$&&&&oooOOOOOOO###$$$$$$$$$$@@@@::::::",
":::::::::+++OOO####$$$OOOOOOOOOOXXXX%%%$$$##############$$$&&&&oooOOOOOOO###$$$$$$$$$$@@@@::::::",
":::::::::+++***####$$$$$$$$$$$$$XXXX%%%###XXXXXXXXXXXXXX###>>>>XXX$$$$$$$>>>>>>>$$$---@@@@::::::",
":::::::::+++***####$$$$$$$$$$$$$XXXX%%%###XXXXXXXXXXXXXX###>>>>XXX$$$$$$$>>>>>>>$$$---@@@@::::::",
":::::::::+++***####$$$$$$$$$$$$$XXXX%%%###XXXXXXXXXXXXXX###>>>>XXX$$$$$$$>>>>>>>$$$---@@@@::::::",
":::::::::+++***####$$$$$$$$$$$$$XXXX%%%###XXXXXXXXXXXXXX###>>>>XXX$$$$$$$>>>>>>>$$$---@@@@::::::",
":::::::::+++***=======----------....OOO%%%XXXXXXXXXXXXXX>>>####...-------;;;;;;;------++++::::::",
":::::::::+++***=======----------....OOO%%%XXXXXXXXXXXXXX>>>####...-------;;;;;;;------++++::::::",
":::::::::+++***=======----------....OOO%%%XXXXXXXXXXXXXX>>>####...-------;;;;;;;------++++::::::",
"::::::::::::+++****==========...OOOOOOOOOO%%%%%%%>>>>>>>###$$$$$$$XXXX===----------+++::::::::::",
"::::::::::::+++****==========...OOOOOOOOOO%%%%%%%>>>>>>>###$$$$$$$XXXX===----------+++::::::::::",
"::::::::::::+++****==========...OOOOOOOOOO%%%%%%%>>>>>>>###$$$$$$$XXXX===----------+++::::::::::",
":::::::::::::::++++***=======+++OOOO###$$$OOOOOOOOOOO###$$$$$$$$$$@@@@======----+++:::::::::::::",
":::::::::::::::++++***=======+++OOOO###$$$OOOOOOOOOOO###$$$$$$$$$$@@@@======----+++:::::::::::::",
":::::::::::::  ++++***=======+++OOOO###$$$OOOOOOOOOOO###$$$$$$$$$$@@@@======----+++  :::::::::::",
":::::::::::    ++++***=======+++OOOO###$$$OOOOOOOOOOO###$$$$$$$$$$@@@@======----+++    :::::::::",
":::::::::::                  +++****###$$$$$$$$$$$$$$>>>>>>$$$$---@@@@                 :::::::::",
":::::::::::                  +++****###$$$$$$$$$$$$$$>>>>>>$$$$---@@@@                 :::::::::",
":::::::::::::                +++****###$$$$$$$$$$$$$$>>>>>>$$$$---@@@@               :::::::::::",
"::::::::::::::::             +++****======-----------;;;;;;-------++++            ::::::::::::::",
":::::::::::::::::::::::::::::+++****======-----------;;;;;;-------++++::::::::::::::::::::::::::",
":::::::::::::::::::::::::::::+++****======-----------;;;;;;-------++++::::::::::::::::::::::::::",
":::::::::::::::::::::::::::::+++****======-----------;;;;;;-------++++::::::::::::::::::::::::::",
"::::::::::::::::::::::::::::::::++++***==============----------+++::::::::::::::::::::::::::::::",
"::::::::::::::::::::::::::::::::++++***==============----------+++::::::::::::::::::::::::::::::",
"::::::::::::::::::::::::::::::::++++***==============----------+++::::::::::::::::::::::::::::::",
"::::::::::::::::::::::::::::::::    +++***==============---++++ ::::::::::::::::::::::::::::::::",
"::::::::::::::::::::::::::::::      +++***==============---++++   ::::::::::::::::::::::::::::::",
"::::::::::::::::::::::::::::::      +++***==============---++++   ::::::::::::::::::::::::::::::",
"::::::::::::::::::::::::::::::                                    ::::::::::::::::::::::::::::::",
"::::::::::::::::::::::::::::::::                                ::::::::::::::::::::::::::::::::",
":::::::::::::::::::::::::::::::::::                          :::::::::::::::::::::::::::::::::::",
"::::::::::::::::::::::::::::::::::::::::::::::::::::::::::::::::::::::::::::::::::::::::::::::::",
"::::::::::::::::::::::::::::::::::::::::::::::::::::::::::::::::::::::::::::::::::::::::::::::::",
"::::::::::::::::::::::::::::::::::::::::::::::::::::::::::::::::::::::::::::::::::::::::::::::::",
"::::::::::::::::::::::::::::::::::::::::::::::::::::::::::::::::::::::::::::::::::::::::::::::::",
"::::::::::::::::::::::::::::::::::::::::::::::::::::::::::::::::::::::::::::::::::::::::::::::::",
"::::::::::::::::::::::::::::::::::::::::::::::::::::::::::::::::::::::::::::::::::::::::::::::::",
"::::::::::::::::::::::::::::::::::::::::::::::::::::::::::::::::::::::::::::::::::::::::::::::::",
"::::::::::::::::::::::::::::::::::::::::::::::::::::::::::::::::::::::::::::::::::::::::::::::::",
"::::::::::::::::::::::::::::::::::::::::::::::::::::::::::::::::::::::::::::::::::::::::::::::::",
"::::::::::::::::::::::::::::::::::::::::::::::::::::::::::::::::::::::::::::::::::::::::::::::::",
"::::::::::::::::::::::::::::::::::::::::::::::::::::::::::::::::::::::::::::::::::::::::::::::::",
"::::::::::::::::::::::::::::::::::::::::::::::::::::::::::::::::::::::::::::::::::::::::::::::::",
"::::::::::::::::::::::::::::::::::::::::::::::::::::::::::::::::::::::::::::::::::::::::::::::::",
"::::::::::::::::::::::::::::::::::::::::::::::::::::::::::::::::::::::::::::::::::::::::::::::::",
"::::::::::::::::::::::::::::::::::::::::::::::::::::::::::::::::::::::::::::::::::::::::::::::::",
"::::::::::::::::::::::::::::::::::::::::::::::::::::::::::::::::::::::::::::::::::::::::::::::::",
"::::::::::::::::::::::::::::::::::::::::::::::::::::::::::::::::::::::::::::::::::::::::::::::::",
"::::::::::::::::::::::::::::::::::::::::::::::::::::::::::::::::::::::::::::::::::::::::::::::::",
"::::::::::::::::::::::::::::::::::::::::::::::::::::::::::::::::::::::::::::::::::::::::::::::::",
"::::::::::::::::::::::::::::::::::::::::::::::::::::::::::::::::::::::::::::::::::::::::::::::::",
"::::::::::::::::::::::::::::::::::::::::::::::::::::::::::::::::::::::::::::::::::::::::::::::::",
"::::::::::::::::::::::::::::::::::::::::::::::::::::::::::::::::::::::::::::::::::::::::::::::::",
"::::::::::::::::::::::::::::::::::::::::::::::::::::::::::::::::::::::::::::::::::::::::::::::::"
};
