/* XPM */
static char *enemy[] = {
/* columns rows colors chars-per-pixel */
"96 99 7 1 ",
"  c black",
". c #3A0911",
"X c #2C2C2C",
"o c #811426",
"O c #A11B31",
"+ c #A9A9A9",
"@ c white",
/* pixels */
"++++++++++++++++++++++++++++++++++++++++++++++++++++++++++++++++++++++++++++++++++++++++++++++++",
"++++++++++++++++++++++++++++++++++++++++++++++++++++++++++++++++++++++++++++++++++++++++++++++++",
"++++++++++++++++++++++++++++++++++++++++++++++++++++++++++++++++++++++++++++++++++++++++++++++++",
"++++++++++++++++++++++++++++++++++++++++++++++++++++++++++++++++++++++++++++++++++++++++++++++++",
"++++++++++++++++++++++++++++++++++++++++++++++++++++++++++++++++++++++++++++++++++++++++++++++++",
"++++++++++++++++++++++++++++++++++++++++++++++++++++++++++++++++++++++++++++++++++++++++++++++++",
"++++++++++++++++++++++++++++++++++++++++++++++++++++++++++++++++++++++++++++++++++++++++++++++++",
"++++++++++++++++++++++++++++++++++++++++++++++++++++++++++++++++++++++++++++++++++++++++++++++++",
"++++++++++++++++++++++++++++++++++++++++++++++++++++++++++++++++++++++++++++++++++++++++++++++++",
"++++++++++++++++++++++++++++++++++++++++++++++++++++++++++++++++++++++++++++++++++++++++++++++++",
"++++++++++++++++++++++++++++++++++++++++++++++++++++++++++++++++++++++++++++++++++++++++++++++++",
"++++++++++++++++++++++++++++++++++++++++++++++++++++++++++++++++++++++++++++++++++++++++++++++++",
"++++++++++++++++++++++++++++++++++++++++++++++++++++++++++++++++++++++++++++++++++++++++++++++++",
"++++++++++++++++++++++++++++++++++++++++..................++++++++++++++++++++++++++++++++++++++",
"++++++++++++++++++++++++++++++++++++++++..................++++++++++++++++++++++++++++++++++++++",
"++++++++++++++++++++++++++++++++++++++++..................++++++++++++++++++++++++++++++++++++++",
"+++++++++++++++++++++++++++++++++++++++.oooOOOOOOOOOOOOOOO...+++++++++++++++++++++++++++++++++++",
"++++++++++++++++++++++++++++++++++++...oOOOOOOOO..........OOO...++++++++++++++++++++++++++++++++",
"++++++++++++++++++++++++++++++++++++...oOOOOOOOO..........OOO...++++++++++++++++++++++++++++++++",
"++++++++++++++++++++++++++++++++++++...oOOOOOOOO..........OOO...++++++++++++++++++++++++++++++++",
"+++++++++++++++++++++++++++++++++...oooOOOOOOO..          ...OOO...+++++++++++++++++++++++++++++",
"+++++++++++++++++++++++++++++++++...oooOOOOOOO..          ...OOO...+++++++++++++++++++++++++++++",
"+++++++++++++++++++++++++++++++++...oooOOOOOOO..          ...OOO...+++++++++++++++++++++++++++++",
"+++++++++++++++++++++++++++++++++...oooOOOO...               ...OOO..+++++++++++++++++++++++++++",
"+++++++++++++++++++++++++++++++++...oooOOOO...               ...OOO..+++++++++++++++++++++++++++",
"++++++++++++++++++++++++++++++...ooooooOOOO...               ...OOO..+++++++++++++++++++++++++++",
"++++++++++++++++++++++++++++++...ooooooOOOO...               ...OOO..+++++++++++++++++++++++++++",
"++++++++++++++++++++++++++++++...ooooooOOOO...               ...OOO..+++++++++++++++++++++++++++",
"++++++++++++++++++++++++++++++...oooooooOOO...  @@@       @@@...OOO..+++++++++++++++++++++++++++",
"++++++++++++++++++++++++++++++...oooooooOOO...  @@@       @@@...OOO..+++++++++++++++++++++++++++",
"++++++++++++++++++++++++++++++...oooooooOOO...  @@@       @@@...OOO..+++++++++++++++++++++++++++",
"++++++++++++++++++++++++++++++...ooo...oOOO...  @@@       @@@...OOO..+++++++++++++++++++++++++++",
"++++++++++++++++++++++++++++++...ooo...oOOO...  @@@       @@@...OOO..+++++++++++++++++++++++++++",
"++++++++++++++++++++++++++++++...ooo...oOOO...  @@@       @@@...OOO..+++++++++++++++++++++++++++",
"++++++++++++++++++++++++++++++...ooo...oOOO...               ...ooo..+++++++++++++++++++++++++++",
"+++++++++++++++++++++++++++++++++......ooooOOO..             ...ooo..+++++++++++++++++++++++++++",
"+++++++++++++++++++++++++++++++++......ooooOOO..             ...ooo..+++++++++++++++++++++++++++",
"+++++++++++++++++++++++++++++++++......ooooOOO..             ...ooo..+++++++++++++++++++++++++++",
"+++++++++++++++++++++++++++++++++++++++.oooooooo...       ...ooo...+++++++++++++++++++++++++++++",
"+++++++++++++++++++++++++++++++++++++++.oooooooo...       ...ooo...+++++++++++++++++++++++++++++",
"+++++++++++++++++++++++++++++++++++++++.oooooooo...       ...ooo...+++++++++++++++++++++++++++++",
"++++++++++++++++++++++++++++++++++++++++......ooooo.......ooo...++++++++++++++++++++++++++++++++",
"++++++++++++++++++++++++++++++++++++++++......ooooo.......ooo...++++++++++++++++++++++++++++++++",
"++++++++++++++++++++++++++++++++++++++++......ooooo.......ooo...++++++++++++++++++++++++++++++++",
"+++++++++++++++++++++++++++++++++++++++.ooooooooOOOOOOOOOOOOOooo...+++++++++++++++++++++++++++++",
"+++++++++++++++++++++++++++++++++++++++.ooooooooOOOOOOOOOOOOOooo...+++++++++++++++++++++++++++++",
"++++++++++++++++++++++++++++++++++++...oOOOOOOOOOOOOOOOOOOOOOOOOooo..+++++++++++++++++++++++++++",
"++++++++++++++++++++++++++++++++++++...oOOOOOOOOOOOOOOOOOOOOOOOOooo..+++++++++++++++++++++++++++",
"++++++++++++++++++++++++++++++++++++...oOOOOOOOOOOOOOOOOOOOOOOOOooo..+++++++++++++++++++++++++++",
"++++++++++++++++++++++++++++++++++++...oOOOOOOOOOOOOOOOOOOOOOOOOooo..+++++++++++++++++++++++++++",
"++++++++++++++++++++++++++++++++++++...oOOOOOOOOOOOOOOOOOOOOOOOOooo..+++++++++++++++++++++++++++",
"++++++++++++++++++++++++++++++++++++...OOOOOOOOOOOOOOOOOOOOOOOOOOOO..+++++++++++++++++++++++++++",
"++++++++++++++++++++++++++++++++++++...OOOOOOOOOOOOOOOOOOOOOOOOOOOO..+++++++++++++++++++++++++++",
"++++++++++++++++++++++++++++++++++++...OOOOOOOOOOOOOOOOOOOOOOOOOOOO..+++++++++++++++++++++++++++",
"+++++++++++++++++++++++++++++++++...oooOOOOOOOOOOOOOOOOOOOOOOOOOOOO..+++++++++++++++++++++++++++",
"+++++++++++++++++++++++++++++++++...oooOOOOOOOOOOOOOOOOOOOOOOOOOOOO..+++++++++++++++++++++++++++",
"+++++++++++++++++++++++++++++++++...oooOOOOOOOOOOOOOOOoooOOOOOOOOOOoo...++++++++++++++++++++++++",
"+++++++++++++++++++++++++++++++++...oooOOOOOOOOOOOOOOOoooOOOOOOOOOOoo...++++++++++++++++++++++++",
"+++++++++++++++++++++++++++++++++...oooOOOOOOOOOOOOOOOoooOOOOOOOOOOoo...++++++++++++++++++++++++",
"+++++++++++++++++++++++++++++++++...oooOOOOOOOOOOOOOOOoooOOOOOOOOOOoo...++++++++++++++++++++++++",
"+++++++++++++++++++++++++++++++++...oooOOOOOOOOOOOOOOOoooOOOOOOOOOOoo...++++++++++++++++++++++++",
"+++++++++++++++++++++++++++++++++...oooOOOOOOOOOOOOOOOoooOOOOOOOOOOoo...++++++++++++++++++++++++",
"+++++++++++++++++++++++++++++++++...oooOOOOOOOOOOOOooo...oOOOOOOooooo...++++++++++++++++++++++++",
"+++++++++++++++++++++++++++++++++...oooOOOOOOOOOOOOooo...oOOOOOOooooo...++++++++++++++++++++++++",
"+++++++++++++++++++++++++++++++++...oooOOOOOOOOOOOOooo...oOOOOOOooooo...++++++++++++++++++++++++",
"++++++++++++++++++++++++++++++...oooooooOOOoooOOoooooo...ooooOOOooooo...++++++++++++++++++++++++",
"++++++++++++++++++++++++++++++...ooooooooooOOOooooo...   .ooooooooooo...++++++++++++++++++++++++",
"++++++++++++++++++++++++++++++...ooooooooooOOOooooo...   .ooooooooooo...++++++++++++++++++++++++",
"++++++++++++++++++++++++++++++...ooooooooooOOOooooo...   .ooooooooooo...++++++++++++++++++++++++",
"++++++++++++++++++++++++++++++...ooo...ooooooooo...      .oooooo...oo...++++++++++++++++++++++++",
"++++++++++++++++++++++++++++++...ooo...ooooooooo...      .oooooo...oo...++++++++++++++++++++++++",
"++++++++++++++++++++++++++++++...ooo...ooooooooo...      .oooooo...oo...++++++++++++++++++++++++",
"+++++++++++++++++++++++++++++++++......o...ooooo...       ...oooooo..+++++++++++++++++++++++++++",
"+++++++++++++++++++++++++++++++++......o...ooooo...       ...oooooo..+++++++++++++++++++++++++++",
"+++++++++++++++++++++++++++++++++......o...ooooo...       ...oooooo..+++++++++++++++++++++++++++",
"++++++++++++++++++++++++++++++++++++....+++........++++++ .........+++++++++++++++++++++++++++++",
"++++++++++++++++++++++++++++++++++++....+++........++++++ .........+++++++++++++++++++++++++++++",
"+++++++++++++++++++++++++++++++++++++++++++     ++++++++++   +++++++++++++++++++++++++++++++++++",
"+++++++++++++++++++++++++++++++++++++++++++     ++++++++++   +++++++++++++++++++++++++++++++++++",
"+++++++++++++++++++++++++++++++++++++++++++     ++++++++++   +++++++++++++++++++++++++++++++++++",
"++++++++++++++++++++++++++++++++++++++++++++++  ++++++++++   +++++++++++++++++++++++++++++++++++",
"++++++++++++++++++++++++++++++++++++++++++++++  ++++++++++   +++++++++++++++++++++++++++++++++++",
"++++++++++++++++++++++++++++++++++++++++++++++  ++++++++++   +++++++++++++++++++++++++++++++++++",
"+++++++++++++++++++++++++++++++++++++++++XXXXX  XXXXXXXXXX   XXXXXX+++++++++++++++++++++++++++++",
"++++++++++++++++++++++++++++++++++++++XXXXXXXXXXXXXXXXXXXXXXXXXXXXXXXX++++++++++++++++++++++++++",
"++++++++++++++++++++++++++++++++++++XXXXXXXXXXXXXXXXXXXXXXXXXXXXXXXXXXXX++++++++++++++++++++++++",
"++++++++++++++++++++++++++++++++++++XXXXXXXXXXXXXXXXXXXXXXXXXXXXXXXXXXXX++++++++++++++++++++++++",
"++++++++++++++++++++++++++++++++++++XXXXXXXXXXXXXXXXXXXXXXXXXXXXXXXXXXXX++++++++++++++++++++++++",
"++++++++++++++++++++++++++++++++++++++XXXXXXXXXXXXXXXXXXXXXXXXXXXXXXXX++++++++++++++++++++++++++",
"+++++++++++++++++++++++++++++++++++++++++XXXXXXXXXXXXXXXXXXXXXXXXXX+++++++++++++++++++++++++++++",
"++++++++++++++++++++++++++++++++++++++++++++++++++++++++++++++++++++++++++++++++++++++++++++++++",
"++++++++++++++++++++++++++++++++++++++++++++++++++++++++++++++++++++++++++++++++++++++++++++++++",
"++++++++++++++++++++++++++++++++++++++++++++++++++++++++++++++++++++++++++++++++++++++++++++++++",
"++++++++++++++++++++++++++++++++++++++++++++++++++++++++++++++++++++++++++++++++++++++++++++++++",
"++++++++++++++++++++++++++++++++++++++++++++++++++++++++++++++++++++++++++++++++++++++++++++++++",
"++++++++++++++++++++++++++++++++++++++++++++++++++++++++++++++++++++++++++++++++++++++++++++++++",
"++++++++++++++++++++++++++++++++++++++++++++++++++++++++++++++++++++++++++++++++++++++++++++++++",
"++++++++++++++++++++++++++++++++++++++++++++++++++++++++++++++++++++++++++++++++++++++++++++++++",
"++++++++++++++++++++++++++++++++++++++++++++++++++++++++++++++++++++++++++++++++++++++++++++++++"
};
