/* XPM */
static char *floor_sprite[] = {
/* columns rows colors chars-per-pixel */
"96 99 2 1 ",
"  c black",
". c #A9A9A9",
/* pixels */
"                                                                                                ",
" .............................................................................................. ",
" .............................................................................................. ",
" .............................................................................................. ",
" .............................................................................................. ",
" .............................................................................................. ",
" .............................................................................................. ",
" .............................................................................................. ",
" .............................................................................................. ",
" .............................................................................................. ",
" .............................................................................................. ",
" .............................................................................................. ",
" .............................................................................................. ",
" .............................................................................................. ",
" .............................................................................................. ",
" .............................................................................................. ",
" .............................................................................................. ",
" .............................................................................................. ",
" .............................................................................................. ",
" .............................................................................................. ",
" .............................................................................................. ",
" .............................................................................................. ",
" .............................................................................................. ",
" .............................................................................................. ",
" .............................................................................................. ",
" .............................................................................................. ",
" .............................................................................................. ",
" .............................................................................................. ",
" .............................................................................................. ",
" .............................................................................................. ",
" .............................................................................................. ",
" .............................................................................................. ",
" .............................................................................................. ",
" .............................................................................................. ",
" .............................................................................................. ",
" .............................................................................................. ",
" .............................................................................................. ",
" .............................................................................................. ",
" .............................................................................................. ",
" .............................................................................................. ",
" .............................................................................................. ",
" .............................................................................................. ",
" .............................................................................................. ",
" .............................................................................................. ",
" .............................................................................................. ",
" .............................................................................................. ",
" .............................................................................................. ",
" .............................................................................................. ",
" .............................................................................................. ",
" .............................................................................................. ",
" .............................................................................................. ",
" .............................................................................................. ",
" .............................................................................................. ",
" .............................................................................................. ",
" .............................................................................................. ",
" .............................................................................................. ",
" .............................................................................................. ",
" .............................................................................................. ",
" .............................................................................................. ",
" .............................................................................................. ",
" .............................................................................................. ",
" .............................................................................................. ",
" .............................................................................................. ",
" .............................................................................................. ",
" .............................................................................................. ",
" .............................................................................................. ",
" .............................................................................................. ",
" .............................................................................................. ",
" .............................................................................................. ",
" .............................................................................................. ",
" .............................................................................................. ",
" .............................................................................................. ",
" .............................................................................................. ",
" .............................................................................................. ",
" .............................................................................................. ",
" .............................................................................................. ",
" .............................................................................................. ",
" .............................................................................................. ",
" .............................................................................................. ",
" .............................................................................................. ",
" .............................................................................................. ",
" .............................................................................................. ",
" .............................................................................................. ",
" .............................................................................................. ",
" .............................................................................................. ",
" .............................................................................................. ",
" .............................................................................................. ",
" .............................................................................................. ",
" .............................................................................................. ",
" .............................................................................................. ",
" .............................................................................................. ",
" .............................................................................................. ",
" .............................................................................................. ",
" .............................................................................................. ",
" .............................................................................................. ",
" .............................................................................................. ",
" .............................................................................................. ",
" .............................................................................................. ",
"                                                                                                "
};
