/* XPM */
static char *player[] = {
/* columns rows colors chars-per-pixel */
"96 99 20 1 ",
"  c black",
". c gray6",
"X c #191919",
"o c #1E1E1E",
"O c gray15",
"+ c #282828",
"@ c #2C2C2C",
"# c gray20",
"$ c gray22",
"% c #3F3F3F",
"& c #4C231E",
"* c #593523",
"= c #7F4D32",
"- c #4C4C4C",
"; c #996144",
": c #B27859",
"> c #FFF200",
", c #005DF0",
"< c #A9A9A9",
"1 c white",
/* pixels */
"                                                                                                ",
" <<<<<<<<<<<<<<<<<<<<<<<<<<<<<<<<<<<<<<<<<<<<<<<<<<<<<<<<<<<<<<<<<<<<<<<<<<<<<<<<<<<<<<<<<<<<<< ",
" <<<<<<<<<<<<<<<<<<<<<<<<<<<<<<<<<<<<<<<<<<<<<<<<<<<<<<<<<<<<<<<<<<<<<<<<<<<<<<<<<<<<<<<<<<<<<< ",
" <<<<<<<<<<<<<<<<<<<<<<<<<<<<<<<<<<<<<<<<<<<<<<<<<<<<<<<<<<<<<<<<<<<<<<<<<<<<<<<<<<<<<<<<<<<<<< ",
" <<<<<<<<<<<<<<<<<<<<<<<<<<<<<<<<<<<<<<<<<<<<<<<<<<<<<<<<<<<<<<<<<<<<<<<<<<<<<<<<<<<<<<<<<<<<<< ",
" <<<<<<<<<<<<<<<<<<<<<<<<<<<<<<<<<<<<<<<<<<<<<<<<<<<<<<<<<<<<<<<<<<<<<<<<<<<<<<<<<<<<<<<<<<<<<< ",
" <<<<<<<<<<<<<<<<<<<<<<<<<<<<<<<<<<<<<<<<<<<<<<<<<<<<<<<<<<<<<<<<<<<<<<<<<<<<<<<<<<<<<<<<<<<<<< ",
" <<<<<<<<<<<<<<<<<<<<<<<<<<<<<<<<<<<<<<<<<<<<<<<<<<<<<<<<<<<<<<<<<<<<<<<<<<<<<<<<<<<<<<<<<<<<<< ",
" <<<<<<<<<<<<<<<<<<<<<<<<<<<<<<<<<<<<<<<<<<<<<<<<<<<<<<<<<<<<<<<<<<<<<<<<<<<<<<<<<<<<<<<<<<<<<< ",
" <<<<<<<<<<<<<<<<<<<<<<<<<<<<<<<<<<<<<<<<<<<<<<<<<<<<<<<<<<<<<<<<<<<<<<<<<<<<<<<<<<<<<<<<<<<<<< ",
" <<<<<<<<<<<<<<<<<<<<<<<<<<<<<<<<<<<<<<<<<<<<<<<<<<<<<<<<<<<<<<<<<<<<<<<<<<<<<<<<<<<<<<<<<<<<<< ",
" <<<<<<<<<<<<<<<<<<<<<<<<<<<<<<<<<<<<<<<<<<<<<<<<<<<<<<<<<<<<<<<<<<<<<<<<<<<<<<<<<<<<<<<<<<<<<< ",
" <<<<<<<<<<<<<<<<<<<<<<<<<<<<<<<<<<<<<<<<<<<<<<<<<<<<<<<<<<<<<<<<<<<<<<<<<<<<<<<<<<<<<<<<<<<<<< ",
" <<<<<<<<<<<<<<<<<<<<<<<<<<<<<<<<<<<<<<<<<<<<<<<<<<<<<<<<<<<<<<<<<<<<<<<<<<<<<<<<<<<<<<<<<<<<<< ",
" <<<<<<<<<<<<<<<<<<<<<<<<<<<<<<<<<<<<<<<<<<<<<<<<<<<<<<<<<<<<<<<<<<<<<<<<<<<<<<<<<<<<<<<<<<<<<< ",
" <<<<<<<<<<<<<<<<<<<<<<<<<<<<<<<<<<<<<<<<<<<<<<<<<<<<<<<<<<<<<<<<<<<<<<<<<<<<<<<<<<<<<<<<<<<<<< ",
" <<<<<<<<<<<<<<<<<<<<<<<<<<<<<<<<<<<<<<<<<<<<<<<<<<<<<<<<<<<<<<<<<<<<<<<<<<<<<<<<<<<<<<<<<<<<<< ",
" <<<<<<<<<<<<<<<<<<<<<<<<<<<<<<<<<<<<<<<<<<<<<<<<<<<<<<<<<<<<<<<<<<<<<<<<<<<<<<<<<<<<<<<<<<<<<< ",
" <<<<<<<<<<<<<<<<<<<<<<<<<<<<<<<<<<<<<<<<<<<<<<<<<<<<<<<<<<<<<<<<<<<<<<<<<<<<<<<<<<<<<<<<<<<<<< ",
" <<<<<<<<<<<<<<<<<<<<<<<<<<<<<<<<<<<<<<<<<<<<<<<<<<<<<<<<<<<<<<<<<<<<<<<<<<<<<<<<<<<<<<<<<<<<<< ",
" <<<<<<<<<<<<<<<<<<<<<<<<<<<<<<<<<<<<<<<<<<<<<<<<<<<<<<<<<<<<<<<<<<<<<<<<<<<<<<<<<<<<<<<<<<<<<< ",
" <<<<<<<<<<<<<<<<<<<<<<<<<<<<<<<<<XXXOOO#######OOOOXXXX<<<<<<<<<<<<<<<<<<<<<<<<<<<<<<<<<<<<<<<< ",
" <<<<<<<<<<<<<<<<<<<<<<<<<<<<<<<<<XXXOOO#######OOOOXXXX<<<<<<<<<<<<<<<<<<<<<<<<<<<<<<<<<<<<<<<< ",
" <<<<<<<<<<<<<<<<<<<<<<<<<<<<<<<<<XXXOOO#######OOOOXXXX<<<<<<<<<<<<<<<<<<<<<<<<<<<<<<<<<<<<<<<< ",
" <<<<<<<<<<<<<<<<<<<<<<<<<<<<<OOOO%%%%%%%%%%%%%%%%%%%%%OOO<<<<<<<<<<<<<<<<<<<<<<<<<<<<<<<<<<<<< ",
" <<<<<<<<<<<<<<<<<<<<<<<<<<<<<OOOO%%%%%%%%%%%%%%%%%%%%%OOO<<<<<<<<<<<<<<<<<<<<<<<<<<<<<<<<<<<<< ",
" <<<<<<<<<<<<<<<<<<<<<<<<<<<<<OOOO%%%%%%%%%%%%%%%%%%%%%OOO<<<<<<<<<<<<<<<<<<<<<<<<<<<<<<<<<<<<< ",
" <<<<<<<<<<<<<<<<<<<<<<<<<<<<<OOOO%%%%%%%%%%%%%%%%%%%%%OOO<<<<<<<<<<<<<<<<<<<<<<<<<<<<<<<<<<<<< ",
" <<<<<<<<<<<<<<<<<<<<XXXOOOOOO----%%%%%%%%%%%%%%%%%%%%%---OOOOOOOXXX<<<<<<<<<<<<<<<<<<<<<<<<<<< ",
" <<<<<<<<<<<<<<<<<<<<XXXOOOOOO----%%%%%%%%%%%%%%%%%%%%%---OOOOOOOXXX<<<<<<<<<<<<<<<<<<<<<<<<<<< ",
" <<<<<<<<<<<<<<<<<<<<XXXOOOOOO----%%%%%%%%%%%%%%%%%%%%%---OOOOOOOXXX<<<<<<<<<<<<<<<<<<<<<<<<<<< ",
" <<<<<<<<<<<<<<<<<<<<<<<XXX#######------%%%%%%%--------######XXXX<<<<<<<<<<<<<<<<<<<<<<<<<<<<<< ",
" <<<<<<<<<<<<<<<<<<<<<<<XXX#######------%%%%%%%--------######XXXX<<<<<<<<<<<<<<<<<<<<<<<<<<<<<< ",
" <<<<<<<<<<<<<<<<<<<<<<<XXX#######------%%%%%%%--------######XXXX<<<<<<<<<<<<<<<<<<<<<<<<<<<<<< ",
" <<<<<<<<<<<<<<<<<<<<<<<<<<OOO############################OOO<<<<<<<<<<<<<<<<<<<<<<<<<<<<<<<<<< ",
" <<<<<<<<<<<<<<<<<<<<<<<<<<OOO############################OOO<<<<<<<<<<<<<<<<<<<<<<<<<<<<<<<<<< ",
" <<<<<<<<<<<<<<<<<<<<<<<<<<OOO############################OOO<<<<<<<<<<<<<<<<<<<<<<<<<<<<<<<<<< ",
" <<<<<<<<<<<<<<<<<<<<XXXOOO***OOOOOOO##############OOOOOOO***OOOOXXX<<<<<<<<<<<<<<<<<<<<<<<<<<< ",
" <<<<<<<<<<<<<<<<<<<<XXXOOO***OOOOOOO##############OOOOOOO***OOOOXXX<<<<<<<<<<<<<<<<<<<<<<<<<<< ",
" <<<<<<<<<<<<<<<<<<<<XXXOOO***OOOOOOO##############OOOOOOO***OOOOXXX<<<<<<<<<<<<<<<<<<<<<<<<<<< ",
" <<<<<<<<<<<<<<<<<<<<XXXOOO***OOOOOOO##############OOOOOOO***OOOOXXX<<<<<<<<<<<<<<<<<<<<<<<<<<< ",
" <<<<<<<<<<<<<<<<<<<<<<<***===OOOO***OOOOOOOOOOOOOO****OOO===****<<<<<<<<<<<<<<<<<<<<<<<<<<<<<< ",
" <<<<<<<<<<<<<<<<<<<<<<<***===OOOO***OOOOOOOOOOOOOO****OOO===****<<<<<<<<<<<<<<<<<<<<<<<<<<<<<< ",
" <<<<<<<<<<<<<<<<<<<<<<<***===OOOO***OOOOOOOOOOOOOO****OOO===****<<<<<<<<<<<<<<<<<<<<<<<<<<<<<< ",
" <<<<<<<<<<<<<<<<<<<<<<<***===OOOO111OOO:::::::OOOO1111OOO===****<<<<<<<<<<<<<<<<<<<<<<<<<<<<<< ",
" <<<<<<<<<<<<<<<<<<<<<<<***===OOOO111OOO:::::::OOOO1111OOO===****<<<<<<<<<<<<<<<<<<<<<<<<<<<<<< ",
" <<<<<<<<<<<<<<<<<<<<<<<***===OOOO111OOO:::::::OOOO1111OOO===****<<<<<<<<<<<<<<<<<<<<<<<<<<<<<< ",
" <<<<<<<<<<<<<<<<<<<<<<<<<<***OOOO111,,,:::::::,,,,1111OOO***<<<<<<<<<<<<<<<<<<<<<<<<<<<<<<<<<< ",
" <<<<<<<<<<<<<<<<<<<<<<<<<<***OOOO111,,,:::::::,,,,1111OOO***<<<<<<<<<<<<<<<<<<<<<<<<<<<<<<<<<< ",
" <<<<<<<<<<<<<<<<<<<<<<<<<<***OOOO111,,,:::::::,,,,1111OOO***<<<<<<<<<<<<<<<<<<<<<<<<<<<<<<<<<< ",
" <<<<<<<<<<<<<<<<<<<<<<<<<<***OOOO111,,,:::::::,,,,1111OOO***<<<<<<<<<<<<<<<<<<<<<<<<<<<<<<<<<< ",
" <<<<<<<<<<<<<<<<<<<<<<<<<<***OOOO111,,,:::::::,,,,1111OOO***<<<<<<<<<<<<<<<<<<<<<<<<<<<<<<<<<< ",
" <<<<<<<<<<<<<<<<<<<<oooooo---OOOO;;;::::::::::::::;;;;OOO---ooooooo<<<<<<<<<<<<<<<<<<<<<<<<<<< ",
" <<<<<<<<<<<<<<<<<<<<oooooo---OOOO;;;::::::::::::::;;;;OOO---ooooooo<<<<<<<<<<<<<<<<<<<<<<<<<<< ",
" <<<<<<<<<<<<<<<<<<<<oooooo---OOOO;;;::::::::::::::;;;;OOO---ooooooo<<<<<<<<<<<<<<<<<<<<<<<<<<< ",
" <<<<<<<<<<<<<<<<oooo---$$$$$$$$$$***;;;;;;;;;;;;;;****$$$$$$$$$$---ooo<<<<<<<<<<<<<<<<<<<<<<<< ",
" <<<<<<<<<<<<<<<<oooo---$$$$$$$$$$***;;;;;;;;;;;;;;****$$$$$$$$$$---ooo<<<<<<<<<<<<<<<<<<<<<<<< ",
" <<<<<<<<<<<<<<<<oooo---$$$$$$$$$$***;;;;;;;;;;;;;;****$$$$$$$$$$---ooo<<<<<<<<<<<<<<<<<<<<<<<< ",
" <<<<<<<<<<<<<<<<oooo---$$$$$$$$$$***;;;;;;;;;;;;;;****$$$$$$$$$$---ooo<<<<<<<<<<<<<<<<<<<<<<<< ",
" <<<<<<<<<<<<<<<<....++++++$$$+++++++**************+++++++$$$+++++++...<<<<<<<<<<<<<<<<<<<<<<<< ",
" <<<<<<<<<<<<<<<<....++++++$$$+++++++**************+++++++$$$+++++++...<<<<<<<<<<<<<<<<<<<<<<<< ",
" <<<<<<<<<<<<<<<<....++++++$$$+++++++**************+++++++$$$+++++++...<<<<<<<<<<<<<<<<<<<<<<<< ",
" <<<<<<<<<<<<<<<<<<<<...$$$+++++++$$$--------------$$$$++++++$$$$...<<<<<<<<<<<<<<<<<<<<<<<<<<< ",
" <<<<<<<<<<<<<<<<<<<<...$$$+++++++$$$--------------$$$$++++++$$$$...<<<<<<<<<<<<<<<<<<<<<<<<<<< ",
" <<<<<<<<<<<<<<<<<<<<...$$$+++++++$$$--------------$$$$++++++$$$$...<<<<<<<<<<<<<<<<<<<<<<<<<<< ",
" <<<<<<<<<<<<<<<<<<<<ooo$$$$$$....$$$$$$-------$$$$$$$$...$$$$$$$ooo<<<<<<<<<<<<<<<<<<<<<<<<<<< ",
" <<<<<<<<<<<<<<<<<<<<ooo$$$$$$....$$$$$$-------$$$$$$$$...$$$$$$$ooo<<<<<<<<<<<<<<<<<<<<<<<<<<< ",
" <<<<<<<<<<<<<<<<<<<<ooo$$$$$$....$$$$$$-------$$$$$$$$...$$$$$$$ooo<<<<<<<<<<<<<<<<<<<<<<<<<<< ",
" <<<<<<<<<<<<<<<<<<<<ooo+++$$$....&&&&&&>>>>>>>&&&&&&&&...$$$++++ooo<<<<<<<<<<<<<<<<<<<<<<<<<<< ",
" <<<<<<<<<<<<<<<<<<<<ooo+++$$$....&&&&&&>>>>>>>&&&&&&&&...$$$++++ooo<<<<<<<<<<<<<<<<<<<<<<<<<<< ",
" <<<<<<<<<<<<<<<<<<<<ooo+++$$$....&&&&&&>>>>>>>&&&&&&&&...$$$++++ooo<<<<<<<<<<<<<<<<<<<<<<<<<<< ",
" <<<<<<<<<<<<<<<<<<<<ooo+++$$$....&&&&&&>>>>>>>&&&&&&&&...$$$++++ooo<<<<<<<<<<<<<<<<<<<<<<<<<<< ",
" <<<<<<<<<<<<<<<<<<<<<<<oooooo....$$$$$$+++++++$$$$$$$$...ooooooo<<<<<<<<<<<<<<<<<<<<<<<<<<<<<< ",
" <<<<<<<<<<<<<<<<<<<<<<<oooooo....$$$$$$+++++++$$$$$$$$...ooooooo<<<<<<<<<<<<<<<<<<<<<<<<<<<<<< ",
" <<<<<<<<<<<<<<<<<<<<<<<oooooo....$$$$$$+++++++$$$$$$$$...ooooooo<<<<<<<<<<<<<<<<<<<<<<<<<<<<<< ",
" <<<<<<<<<<<<<<<<<<<<<<<<<<<<<....++++++.......++++++++...<<<<<<<<<<<<<<<<<<<<<<<<<<<<<<<<<<<<< ",
" <<<<<<<<<<<<<<<<<<<<<<<<<<<<<....++++++.......++++++++...<<<<<<<<<<<<<<<<<<<<<<<<<<<<<<<<<<<<< ",
" <<<<<<<<<<<<<<<<<<<<<<<<<<<<<....++++++.......++++++++...<<<<<<<<<<<<<<<<<<<<<<<<<<<<<<<<<<<<< ",
" <<<<<<<<<<<<<<<<<<<<<<<<<<<<<<<<<......<<<<<<<........<<<<<<<<<<<<<<<<<<<<<<<<<<<<<<<<<<<<<<<< ",
" <<<<<<<<<<<<<<<<<<<<<<<<<<<<<<<<<......<<<<<<<........<<<<<<<<<<<<<<<<<<<<<<<<<<<<<<<<<<<<<<<< ",
" <<<<<<<<<<<<<<<<<<<<<<<<<<<<<<@@@......@@@@@@@........@@<<<<<<<<<<<<<<<<<<<<<<<<<<<<<<<<<<<<<< ",
" <<<<<<<<<<<<<<<<<<<<<<<<<<<@@@@@@......@@@@@@@........@@@@@<<<<<<<<<<<<<<<<<<<<<<<<<<<<<<<<<<< ",
" <<<<<<<<<<<<<<<<<<<<<<<<<@@@@@@@@@@@@@@@@@@@@@@@@@@@@@@@@@@@@<<<<<<<<<<<<<<<<<<<<<<<<<<<<<<<<< ",
" <<<<<<<<<<<<<<<<<<<<<<<<<@@@@@@@@@@@@@@@@@@@@@@@@@@@@@@@@@@@@<<<<<<<<<<<<<<<<<<<<<<<<<<<<<<<<< ",
" <<<<<<<<<<<<<<<<<<<<<<<<<@@@@@@@@@@@@@@@@@@@@@@@@@@@@@@@@@@@@<<<<<<<<<<<<<<<<<<<<<<<<<<<<<<<<< ",
" <<<<<<<<<<<<<<<<<<<<<<<<<<<@@@@@@@@@@@@@@@@@@@@@@@@@@@@@@@@<<<<<<<<<<<<<<<<<<<<<<<<<<<<<<<<<<< ",
" <<<<<<<<<<<<<<<<<<<<<<<<<<<<<<@@@@@@@@@@@@@@@@@@@@@@@@@@<<<<<<<<<<<<<<<<<<<<<<<<<<<<<<<<<<<<<< ",
" <<<<<<<<<<<<<<<<<<<<<<<<<<<<<<<<<<<<<<<<<<<<<<<<<<<<<<<<<<<<<<<<<<<<<<<<<<<<<<<<<<<<<<<<<<<<<< ",
" <<<<<<<<<<<<<<<<<<<<<<<<<<<<<<<<<<<<<<<<<<<<<<<<<<<<<<<<<<<<<<<<<<<<<<<<<<<<<<<<<<<<<<<<<<<<<< ",
" <<<<<<<<<<<<<<<<<<<<<<<<<<<<<<<<<<<<<<<<<<<<<<<<<<<<<<<<<<<<<<<<<<<<<<<<<<<<<<<<<<<<<<<<<<<<<< ",
" <<<<<<<<<<<<<<<<<<<<<<<<<<<<<<<<<<<<<<<<<<<<<<<<<<<<<<<<<<<<<<<<<<<<<<<<<<<<<<<<<<<<<<<<<<<<<< ",
" <<<<<<<<<<<<<<<<<<<<<<<<<<<<<<<<<<<<<<<<<<<<<<<<<<<<<<<<<<<<<<<<<<<<<<<<<<<<<<<<<<<<<<<<<<<<<< ",
" <<<<<<<<<<<<<<<<<<<<<<<<<<<<<<<<<<<<<<<<<<<<<<<<<<<<<<<<<<<<<<<<<<<<<<<<<<<<<<<<<<<<<<<<<<<<<< ",
" <<<<<<<<<<<<<<<<<<<<<<<<<<<<<<<<<<<<<<<<<<<<<<<<<<<<<<<<<<<<<<<<<<<<<<<<<<<<<<<<<<<<<<<<<<<<<< ",
" <<<<<<<<<<<<<<<<<<<<<<<<<<<<<<<<<<<<<<<<<<<<<<<<<<<<<<<<<<<<<<<<<<<<<<<<<<<<<<<<<<<<<<<<<<<<<< ",
" <<<<<<<<<<<<<<<<<<<<<<<<<<<<<<<<<<<<<<<<<<<<<<<<<<<<<<<<<<<<<<<<<<<<<<<<<<<<<<<<<<<<<<<<<<<<<< ",
" <<<<<<<<<<<<<<<<<<<<<<<<<<<<<<<<<<<<<<<<<<<<<<<<<<<<<<<<<<<<<<<<<<<<<<<<<<<<<<<<<<<<<<<<<<<<<< ",
" <<<<<<<<<<<<<<<<<<<<<<<<<<<<<<<<<<<<<<<<<<<<<<<<<<<<<<<<<<<<<<<<<<<<<<<<<<<<<<<<<<<<<<<<<<<<<< ",
"                                                                                                "
};
