/* XPM */
static char *walle[] = {
/* columns rows colors chars-per-pixel */
"96 99 43 1 ",
"  c None",
". c black",
"X c #665A46",
"o c #515D66",
"O c #141619",
"+ c #4C4334",
"@ c #332C22",
"# c #A89575",
"$ c #C1AB86",
"% c #99876B",
"& c #807159",
"* c #605542",
"= c #6B5F4B",
"- c #5A4F3E",
"; c #766952",
": c #483F31",
"> c #41392C",
", c #A49172",
"< c #8F7F64",
"1 c #574D3C",
"2 c #756751",
"3 c #4C3721",
"4 c #594027",
"5 c #3F2E1B",
"6 c #3C454C",
"7 c #282E33",
"8 c #A4ACB2",
"9 c #C1C7CC",
"0 c #869199",
"q c #6B767F",
"w c #5E666B",
"e c #4B5359",
"r c #73797D",
"t c #394148",
"y c #333B41",
"u c #A4A9AE",
"i c #8C9297",
"p c #454F57",
"a c #5B646C",
"s c #3F3226",
"d c #4C3B2A",
"f c #33281E",
"g c white",
/* pixels */
"6666y777776ooq888888888888rt6yOOOOOOOOOOOOOOOOOOOOOOOOOOOOOOOOOOOOOy6tr888888888888qoop666666666",
"6666y777776ooq888888888888rt6yOOOOOOOOOOOOOOOOOOOOOOOOOOOOOOOOOOOOOy6tr888888888888qoop666666666",
"ppppy7yyyy6ooq888888888888rt6yOOOOOOOOOOOOOOOOOOOOOOOOOOOOOOOOOOOOOy6tr888888888888qoop666666666",
"iiii0rriii0ooq8888888889990t6yOOOOOOOOOOOOOOOOOOOOOOOOOOOOOOOOOOOOOy6t0999888888888qooq00000rqqw",
"8888i00u88iooq888888888999it6yOOOOOOOOOOOOOOOOOOOOOOOOOOOOOOOOOOOOOy6ti999888888888qoor000000qqq",
"8888i00u88iooq888888888999it6yOOOOOOOOOOOOOOOOOOOOOOOOOOOOOOOOOOOOOy6ti999888888888qoor000000qqq",
"8iiii00iii0ooq888888888999it6yOOOOOOOOOOOOOOOOOOOOOOOOOOOOOOOOOOOOOy6ti999888888888qoor000rrrqqw",
"8i00000000rooq888888888999it6yOOOOOOOOOOOOOOOOOOOOOOOOOOOOOOOOOOOOOy6ti999888888888qoor000qqqqqw",
"8i00000000rooq888888888999it6yOOOOOOOOOOOOOOOOOOOOOOOOOOOOOOOOOOOOOy6ti999888888888qoor000qqqqqw",
"0rqqqqqqqqqooqiuu888888999it6t7777777777777777777777777777777777777t6ti999888888uuiqooqqqqwwwwwa",
"ooooooooooooow00iu88888999it66666666666666666666666666666666666666666ti99988888ui00woooooooooooo",
"ooooooooooooow00i8888889990yttttttttttttttttttttttttttttttttttttttttty0999888888i00woooooooooooo",
"o0iiiii0rrrqqr000uuu888899u00rrrr000000rrr000rrrrrrr000rrr000000rrrr00u998888uuu000rqqrrr0iiiii0",
"a899999988u000000000u8888899998889999998889998888888999888999999888999988888u000000000u889999998",
"a899999988u000000000u8888899998889999998889998888888999888999999888999988888u000000000u889999998",
"a899999888uiiiiiiiiiu8888889988889999998889998888888999888999999888899888888uiiiiiiiiiu888999998",
"a89988888888888888888888888888888888888888888888888888888888888888888888888888888888888888888998",
"a89988888888888888888888888888888888888888888888888888888888888888888888888888888888888888888998",
"a8998888888888888888888uuu888888888888888888888888888888888888888888888uuu8888888888888888888998",
"au888888888888888888888i00u8888888888888888888888888888888888888888888u00i888888888888888888888u",
"ou888888888888888888888i00u8888888888888888888888888888888888888888888u00i888888888888888888888u",
"ou888888888888888888888i00u8888888888888888888888888888888888888888888u00i888888888888888888888u",
"a8998888888888888888888i000iiu8888888888888888888888888888888888888uii000i8888888888888888888998",
"a8998888888888888888888i00000i8888888888888888888888888888888888888i00000i8888888888888888888998",
"a8998888888888888888888i00000i8888888888888888888888888888888888888i00000i8888888888888888888998",
"a8998888888888888888888i00rqqr0000000000000000000000000000000000000rqqr00i8888888888888888888998",
"a8998888888888888888888i00qooaqqqqqqqqqqqqqqqqqqqqqqqqqqqqqqqqqqqqqaooq00i8888888888888888888998",
"a8998888888888888888888i00qoowqqqqqqqqqqqqqqqqqqqqqqqqqqqqqqqqqqqqqwooq00i8888888888888888888998",
"a8888888888888888888888uuuroowqqqqqqqqqqqqqqqqqqqqqqqqqqqqqqqqqqqqqwooruuu8888888888888888888888",
"ou8888888888888888888888880oowqqqqqqqqqqqqqqqqqqqqqqqqqqqqqqqqqqqqqwoo0888888888888888888888888u",
"ou888888888888888888888888roowqqqqqqqqqqqqqqqqqqqqqqqqqqqqqqqqqqqqqwoor888888888888888888888888u",
"a88888888888888888888888880ooaaaaaaaaaaaaaaaaaaaaaaaaaaaaaaaaaaaaaaaoo08888888888888888888888888",
"a8998888888888888888888999iooet66666666666666666666666666666666666teooi9998888888888888888888998",
"a8998888888888888888888999iooe6666666666666666666666666666666666666eooi9998888888888888888888998",
"a8999888888888888888888999iooe666666666666tttttttttt666666666666666eooi9998888888888888888889998",
"a8999998888999888888999999iooe666666666666777777777y666666666666666eooi9999998888889998888999998",
"a8999999888999888888999999iooe666666666666777777777y66666666666666teooi9999998888889998889999998",
"o8999998uu8998uuuuuu9999990eoeppp666pppppptyytttyyytpp6666666ooooooooe0999999uuuuuu8998uu8999998",
"6qrrrrrrqqrrrrqqqqqrrrrrrra66oqqw66prrrrrrwwaqrrwaaaawaeee66piuuuuurt6arrrrrrrqqqqqrrrrqqrrrrrrq",
"6qqqqqqqqqqqqqqqqqqqqqqqqqo66oqqw66errrrrrwwwqrrqwwwwwaeee66pu88888rt6oqqqqqqqqqqqqqqqqqqqqqqqqq",
"6qqqqqqqqqqqqqqqqqqqqqqqqqo66oqqw6tprrrrrrwwwqrrqwwwwwaeee66pu88888rt6oqqqqqqqqqqqqqqqqqqqqqqqqq",
"6qqqqqqqqqqqqqqqqqqqqqqqqqo66oqqw776rrrwwwwwwwwwwwwaeeeeepy7tu88iiiqt6oqqqqqqqqqqqqqqqqqqqqqqqqq",
"6qqqqqqqqqqqqqqqqqqqqqqqqqo66oqqw77trrrwwwwwwwwwwwwoeeeeep77yu88i00qt6oqqqqqqqqqqqqqqqqqqqqqqqqq",
"6qqqqqqqqqqqqqqqqqqqqqqqqqo66oqqw77trrrwwwwwwwwwwwwoeeeeep77yu88i00qt6oqqqqqqqqqqqqqqqqqqqqqqqqq",
"woeewqqqqqqqqqqqqqqqqqqoeeawwqqqwtt6ooooeeeeeeeeeeeeeeeeeett6r00rrrqwwaeeoqqqqqqqqqqqqqqqqqqweep",
"qet6wqqqqqqqqqqqqqqqqqqettaqqqqqw666eeeeeeeeeeeeeeeeeeeeee666qqqqqqqqqatteqqqqqqqqqqqqqqqqqqw66t",
"qe66wqqqqqqqqqqqqqqqqqqettaqqqqqw666eeeeeeeeeeeeeeeeeeeeee666qqqqqqqqqa66eqqqqqqqqqqqqqqqqqqw66t",
"o666eooooooooooooooooooaaaaaaaawoyyteee666eeep66peep666666yyyqqqwaaqqqweeeooooooooooooooooooeyyy",
"66666666666666666666666wqqwoooooe77yeee6ttpee6ttpeeptttttt777wqqaoowqqwooe666666666666666666y777",
"66666666666666666666666wqqwoooooe77yeee6ttpee6ttpeeptttttt777qqqaoowqqwooe666666666666666666t777",
"6666666666tyyt666666666oaaoeeppp677yppp6t6ppp6tt6pp6tttyyy777eooeeeoaaoeep666666yyyyyyt66666t777",
"           777666666666666666y777777666666666666666666t777777777t666666666666666777777          ",
"           777ttt666666tttttty777777tttttt666666tttttty777777777yttt666666tttttt777777          ",
"           77taaaoee666wqqqqqwooawwwaaaaaaoeep66oqqqqqwooowwwoooaaaoeep66eqqqqqqoooy77          ",
"           77e000qqqp66i88888u00i88u000000rqqo6t088888u00iu88i00000rqqa6tw88888u000e77          ",
"           77e000qqqp66i88888u00i88u000000rqqo6t088888u00iu88i00000rqqa6tw888888000e77          ",
"           77e000qqqpt6i88uuui00iuuu000000rqqotyr888uuu000uuui00000rqqattw888uuui00e77          ",
"           776qqqqqqt77i88i000000000000rqqqqqe77r88u000000000000rqqqqqa77w88u000000e77          ",
"           776qqqqqqt77i88i000000000000qqqqqqe77r88u000000000000rqqqqqa77w88u000000e77          ",
"           776qqqqqqt77iuui000000000000qqqqqqe77ruuu000000000000rqqqqqa77wuuu000000e77          ",
"           776qqqqqqpt6qrrrqqqqqqqqqqqqqqqqqqottarrrqqqqqqqqqqqqqqqqqqatterrrqqqqqq677          ",
"           776qqqqqqp66wqqqqqqqqqqqqqqqqqqqqqo66aqqqqqqqqqqqqqqqqqqqqqa66eqqqqqqqqq677          ",
"           776qqqqqqp66wqqqqqqqqqqqqqqqqqqqqqottaqqqqqqqqqqqqqqqqqqqqqa66eqqqqqqqqq677          ",
"           77taaaaaay7ywqqwaawqqqaaaqqqaaaaaa677oqqqaaaqqqaaaqqqwaaaaae77pqqqaaaqqq677          ",
"           77yooooooy77wqqwoowqqqooaqqqoooooot77oqqqooaqqqoooqqqaooooop77pqqqoooqqq677          ",
"           77yooooooy77wqqwoowqqqooaqqqoooooot77oqqqooaqqqoooqqqaooooop77pqqqoooqqq677          ",
"           77yppp66t7776eepppeooepppoooppppppy776ooepppooopppoooepp6t6y77yeeepppoooy77          ",
"           77y66t777777777y666666666666666666y77y666666666666666666y77777777766666t777          ",
"           777t6t777777777y666666666ttttttttt777ytttttt666666666666y777777777t66666y77          ",
"           77taaaeppoooeppeeeeppp66errrrrrqqqrrrrqqqqqqaao666oaaaaaoppeoooppeeeepppy77          ",
"           77prrrwwwrrrwwwwwwoeep66au88888i00u88u000000qqqp66qrrrrrqwwqrrrwwwwwweeey77          ",
"           776rrrwwwrrrwwwwwwoeep66au88888i00u88u000000qqqp66qrrrrrqwwwrrqwwwwwweeey77          ",
"           776qqqwwwqqqwwwaoooeeptyou88uuui00iuui000000qqq6ttqrrqqqwwwwqqqwwwoooeeey77          ",
"           77twwwwwwwwwwwwoeeeeep77eu8ui000000000000qqqqqqy77qrrwwwwwwwwwwwwaeeeeeey77          ",
"           77twwwwwwwwwwwwoeeeeep77eu88i000000000000qqqqqqy77qrrwwwwwwwwwwwwaeeeeeey77          ",
"           77taaaaaaaaaaaaoeeeeep77euuu0000000000000qqqqqqy7ywqqwaaaaaaaaaaaoeeeeeey77          ",
"           77yeeeeeeeeeeeeeeeeeep66pqqqqqqqqqqqqqqqqqqqqqq666eeeeeeeeeeeeeeeeeeeeeey77          ",
"           77yeeeeeeeeeeeeeeeeeep66pqqqqqqqqqqqqqqqqqqqqqqp66eeeeeeeeeeeeeeeeeeeeeey77          ",
"           77yeeeeeeeeeeeeeeeeeepttpqqqqqqqqqqqqqqqqqqqqqq6t6peeeeeeeeeeeeeeeeeeeeey77          ",
"           777t66eee666pee6t6666t776qqqaooqqqwoowqqqooooooy77pee6ttpeept66eee66666t777          ",
"           777tt6eee6ttpee6ttttty77tqqqoooqqqaoowqqqoooooo777pee6ttpeeptt6eeetttttt777          ",
"           777tt6eee6ttpee6ttttty77tqqqoooqqqaoowqqwoooooo777pee6ttpeeptt6eeptttttt777          ",
"           777666666666666666y777777t666pppeeppppeeppp6yyy777yyyt666666666666666y77777          ",
"           77y666666666666666y777777777t66666666666666t777777777t666666666666666777777          ",
"           77y666666666666666y777777777t66666666666666t777777777t66666666666666t777777          ",
"           77prrrwwwp660iiiii0rrrii0rrrrrrqwwe6tqiiiii0rrriiirrrrrrqwwo6taiiiiiirrrp77          ",
"           77e000qqqp66i88888u00i88u000000rqqo6t088888u00i888i00000rqqa6tq888888i00e77          ",
"           77e000qqqp66i88888u00i88u000000rqqo6t088888u00i888i00000rqqa6tw888888i00e77          ",
"           77prrrqqq6yyi88uiui00iiui0000rrqqqeyyr88uiui000iii0000rrrqqayyw88uuii000e77          ",
"           776qqqqqqt77i88i000000000000qqqqqqp77r88u000000000000rqqqqqa77w88u000000e77          ",
"           776qqqqqqt77i88i000000000000qqqqqqp77r88u000000000000rqqqqqa77w88u000000e77          ",
"           776qqqqqq6yy0ii0000000000000qqqqqqey7qiii000000000000rqqqqqayyaiii000000p77          ",
"           776qqqqqqp66wqqqqqqqqqqqqqqqqqqqqqo66aqqqqqqqqqqqqqqqqqqqqqa66eqqqqqqqqq677          ",
"           776qqqqqqp66wqqqqqqqqqqqqqqqqqqqqqo66aqqqqqqqqqqqqqqqqqqqqqa66eqqqqqqqqq677          ",
"           776qqqqqq6ttwqqqqqqqqqqqqqqqqqqqqqettoqqqqqqqqqqqqqqqqqqqqqotteqqqqqqqqq677          ",
"           77yooooooy77wqqwoowqqqooaqqqoooooo677oqqqooaqqqoooqqqaooooop77pqqqoooqqq677          ",
"           77yooooooy77wqqwoowqqqooaqqqoooooot77oqqqooaqqqoooqqqaooooop77pqqqoooqqq677          ",
"           77yoooooey77aqqaooaqqwoooqqqoooooot77eqqwoooqqqoooqqqaooooop776qqwoooqqq677          ",
"           77y666y77777yyyt666666666666666y77777y666666666666666666y777777yyy666666y77          "
};
