/* XPM */
static char *wall[] = {
/* columns rows colors chars-per-pixel */
"96 99 42 1 ",
"  c black",
". c #665A46",
"X c #515D66",
"o c #141619",
"O c #4C4334",
"+ c #332C22",
"@ c #A89575",
"# c #C1AB86",
"$ c #99876B",
"% c #807159",
"& c #605542",
"* c #6B5F4B",
"= c #5A4F3E",
"- c #766952",
"; c #483F31",
": c #41392C",
"> c #A49172",
", c #8F7F64",
"< c #574D3C",
"1 c #756751",
"2 c #4C3721",
"3 c #594027",
"4 c #3F2E1B",
"5 c #3C454C",
"6 c #282E33",
"7 c #A4ACB2",
"8 c #C1C7CC",
"9 c #869199",
"0 c #6B767F",
"q c #5E666B",
"w c #4B5359",
"e c #73797D",
"r c #394148",
"t c #333B41",
"y c #A4A9AE",
"u c #8C9297",
"i c #454F57",
"p c #5B646C",
"a c #3F3226",
"s c #4C3B2A",
"d c #33281E",
"f c white",
/* pixels */
"5555t666665XX0777777777777er5tooooooooooooooooooooooooooooooooooooot5re7777777777770XXi555555555",
"5555t666665XX0777777777777er5tooooooooooooooooooooooooooooooooooooot5re7777777777770XXi555555555",
"iiiit6tttt5XX0777777777777er5tooooooooooooooooooooooooooooooooooooot5re7777777777770XXi555555555",
"uuuu9eeuuu9XX07777777778889r5tooooooooooooooooooooooooooooooooooooot5r98887777777770XX099999e00q",
"7777u99y77uXX0777777777888ur5tooooooooooooooooooooooooooooooooooooot5ru8887777777770XXe999999000",
"7777u99y77uXX0777777777888ur5tooooooooooooooooooooooooooooooooooooot5ru8887777777770XXe999999000",
"7uuuu99uuu9XX0777777777888ur5tooooooooooooooooooooooooooooooooooooot5ru8887777777770XXe999eee00q",
"7u99999999eXX0777777777888ur5tooooooooooooooooooooooooooooooooooooot5ru8887777777770XXe99900000q",
"7u99999999eXX0777777777888ur5tooooooooooooooooooooooooooooooooooooot5ru8887777777770XXe99900000q",
"9e000000000XX0uyy777777888ur5r6666666666666666666666666666666666666r5ru888777777yyu0XX0000qqqqqp",
"XXXXXXXXXXXXXq99uy77777888ur55555555555555555555555555555555555555555ru88877777yu99qXXXXXXXXXXXX",
"XXXXXXXXXXXXXq99u7777778889trrrrrrrrrrrrrrrrrrrrrrrrrrrrrrrrrrrrrrrrrt9888777777u99qXXXXXXXXXXXX",
"X9uuuuu9eee00e999yyy777788y99eeee999999eee999eeeeeee999eee999999eeee99y887777yyy999e00eee9uuuuu9",
"p788888877y999999999y7777788887778888887778887777777888777888888777888877777y999999999y778888887",
"p788888877y999999999y7777788887778888887778887777777888777888888777888877777y999999999y778888887",
"p788888777yuuuuuuuuuy7777778877778888887778887777777888777888888777788777777yuuuuuuuuuy777888887",
"p78877777777777777777777777777777777777777777777777777777777777777777777777777777777777777777887",
"p78877777777777777777777777777777777777777777777777777777777777777777777777777777777777777777887",
"p7887777777777777777777yyy777777777777777777777777777777777777777777777yyy7777777777777777777887",
"py777777777777777777777u99y7777777777777777777777777777777777777777777y99u777777777777777777777y",
"Xy777777777777777777777u99y7777777777777777777777777777777777777777777y99u777777777777777777777y",
"Xy777777777777777777777u99y7777777777777777777777777777777777777777777y99u777777777777777777777y",
"p7887777777777777777777u999uuy7777777777777777777777777777777777777yuu999u7777777777777777777887",
"p7887777777777777777777u99999u7777777777777777777777777777777777777u99999u7777777777777777777887",
"p7887777777777777777777u99999u7777777777777777777777777777777777777u99999u7777777777777777777887",
"p7887777777777777777777u99e00e9999999999999999999999999999999999999e00e99u7777777777777777777887",
"p7887777777777777777777u990XXp0000000000000000000000000000000000000pXX099u7777777777777777777887",
"p7887777777777777777777u990XXq0000000000000000000000000000000000000qXX099u7777777777777777777887",
"p7777777777777777777777yyyeXXq0000000000000000000000000000000000000qXXeyyy7777777777777777777777",
"Xy7777777777777777777777779XXq0000000000000000000000000000000000000qXX9777777777777777777777777y",
"Xy777777777777777777777777eXXq0000000000000000000000000000000000000qXXe777777777777777777777777y",
"p77777777777777777777777779XXpppppppppppppppppppppppppppppppppppppppXX97777777777777777777777777",
"p7887777777777777777777888uXXwr55555555555555555555555555555555555rwXXu8887777777777777777777887",
"p7887777777777777777777888uXXw5555555555555555555555555555555555555wXXu8887777777777777777777887",
"p7888777777777777777777888uXXw555555555555rrrrrrrrrr555555555555555wXXu8887777777777777777778887",
"p7888887777888777777888888uXXw555555555555666666666t555555555555555wXXu8888887777778887777888887",
"p7888888777888777777888888uXXw555555555555666666666t55555555555555rwXXu8888887777778887778888887",
"X7888887yy7887yyyyyy8888889wXwiii555iiiiiirttrrrtttrii5555555XXXXXXXXw9888888yyyyyy7887yy7888887",
"50eeeeee00eeee00000eeeeeeep55X00q55ieeeeeeqqp0eeqppppqpwww55iuyyyyyer5peeeeeee00000eeee00eeeeee0",
"50000000000000000000000000X55X00q55weeeeeeqqq0ee0qqqqqpwww55iy77777er5X0000000000000000000000000",
"50000000000000000000000000X55X00q5rieeeeeeqqq0ee0qqqqqpwww55iy77777er5X0000000000000000000000000",
"50000000000000000000000000X55X00q665eeeqqqqqqqqqqqqpwwwwwit6ry77uuu0r5X0000000000000000000000000",
"50000000000000000000000000X55X00q66reeeqqqqqqqqqqqqXwwwwwi66ty77u990r5X0000000000000000000000000",
"50000000000000000000000000X55X00q66reeeqqqqqqqqqqqqXwwwwwi66ty77u990r5X0000000000000000000000000",
"qXwwq000000000000000000Xwwpqq000qrr5XXXXwwwwwwwwwwwwwwwwwwrr5e99eee0qqpwwX000000000000000000qwwi",
"0wr5q000000000000000000wrrp00000q555wwwwwwwwwwwwwwwwwwwwww555000000000prrw000000000000000000q55r",
"0w55q000000000000000000wrrp00000q555wwwwwwwwwwwwwwwwwwwwww555000000000p55w000000000000000000q55r",
"X555wXXXXXXXXXXXXXXXXXXppppppppqXttrwww555wwwi55iwwi555555ttt000qpp000qwwwXXXXXXXXXXXXXXXXXXwttt",
"55555555555555555555555q00qXXXXXw66twww5rriww5rriwwirrrrrr666q00pXXq00qXXw555555555555555555t666",
"55555555555555555555555q00qXXXXXw66twww5rriww5rriwwirrrrrr666000pXXq00qXXw555555555555555555r666",
"eeeeeeeeeeqttr555555555XppXwwiii566tiii5r5iii5rr5ii5rrrttt666wXXwwwXppXwwi555555ttttttqeeeeeeeee",
"yyyyyyyyyy9666555555555555555t666666555555555555555555r666666666r5555555555555556666669yyyyyyyyy",
"yyyyyyyyyy9666rrr555555rrrrrrt666666rrrrrr555555rrrrrrt666666666trrr555555rrrrrr6666669yyyyyyyyy",
"yyyyyyyyyy966rpppXww555q00000qXXpqqqppppppXwwi55X00000qXXXqqqXXXpppXwwi55w000000XXXt669yyyyyyyyy",
"yyyyyyyyyy966w999000i55u77777y99u77y999999e00X5r977777y99uy77u99999e00p5rq77777y999w669yyyyyyyyy",
"yyyyyyyyyy966w999000i55u77777y99u77y999999e00X5r977777y99uy77u99999e00p5rq777777999w669yyyyyyyyy",
"yyyyyyyyyy966w999000ir5u77yyyu99uyyy999999e00Xrte777yyy999yyyu99999e00prrq777yyyu99w669yyyyyyyyy",
"yyyyyyyyyy9665000000r66u77u999999999999e00000w66e77y999999999999e00000p66q77y999999w669yyyyyyyyy",
"yyyyyyyyyy9665000000r66u77u999999999999000000w66e77y999999999999e00000p66q77y999999w669yyyyyyyyy",
"yyyyyyyyyy9665000000r66uyyu999999999999000000w66eyyy999999999999e00000p66qyyy999999w669yyyyyyyyy",
"yyyyyyyyyy9665000000ir50eee000000000000000000Xrrpeee000000000000000000prrweee0000005669yyyyyyyyy",
"yyyyyyyyyy9665000000i55q000000000000000000000X55p000000000000000000000p55w0000000005669yyyyyyyyy",
"yyyyyyyyyy9665000000i55q000000000000000000000Xrrp000000000000000000000p55w0000000005669yyyyyyyyy",
"yyyyyyyyyy966rppppppt6tq00qppq000ppp000pppppp566X000ppp000ppp000qpppppw66i000ppp0005669yyyyyyyyy",
"yyyyyyyyyy966tXXXXXXt66q00qXXq000XXp000XXXXXXr66X000XXp000XXX000pXXXXXi66i000XXX0005669yyyyyyyyy",
"yyyyyyyyyy966tXXXXXXt66q00qXXq000XXp000XXXXXXr66X000XXp000XXX000pXXXXXi66i000XXX0005669yyyyyyyyy",
"yyyyyyyyyy966tiii55r6665wwiiiwXXwiiiXXXiiiiiit665XXwiiiXXXiiiXXXwii5r5t66twwwiiiXXXt669yyyyyyyyy",
"yyyyyyyyyy966t55r666666666t555555555555555555t66t555555555555555555t66666666655555r6669yyyyyyyyy",
"yyyyyyyyyy9666r5r666666666t555555555rrrrrrrrr666trrrrrr555555555555t666666666r55555t669yyyyyyyyy",
"yyyyyyyyyy966rpppwiiXXXwiiwwwwiii55weeeeee000eeee000000ppX555XpppppXiiwXXXiiwwwwiiit669yyyyyyyyy",
"yyyyyyyyyy966ieeeqqqeeeqqqqqqXwwi55py77777u99y77y999999000i550eeeee0qq0eeeqqqqqqwwwt669yyyyyyyyy",
"yyyyyyyyyy9665eeeqqqeeeqqqqqqXwwi55py77777u99y77y999999000i550eeeee0qqqee0qqqqqqwwwt669yyyyyyyyy",
"yyyyyyyyyy9665000qqq000qqqpXXXwwirtXy77yyyu99uyyu9999990005rr0ee000qqqq000qqqXXXwwwt669yyyyyyyyy",
"yyyyyyyyyy966rqqqqqqqqqqqqXwwwwwi66wy7yu999999999999000000t660eeqqqqqqqqqqqqpwwwwwwt669yyyyyyyyy",
"yyyyyyyyyy966rqqqqqqqqqqqqXwwwwwi66wy77u999999999999000000t660eeqqqqqqqqqqqqpwwwwwwt669yyyyyyyyy",
"yyyyyyyyyy966rppppppppppppXwwwwwi66wyyy9999999999999000000t6tq00qpppppppppppXwwwwwwt669yyyyyyyyy",
"yyyyyyyyyy966twwwwwwwwwwwwwwwwwwi55i0000000000000000000000555wwwwwwwwwwwwwwwwwwwwwwt669yyyyyyyyy",
"yyyyyyyyyy966twwwwwwwwwwwwwwwwwwi55i0000000000000000000000i55wwwwwwwwwwwwwwwwwwwwwwt669yyyyyyyyy",
"yyyyyyyyyy966twwwwwwwwwwwwwwwwwwirri00000000000000000000005r5iwwwwwwwwwwwwwwwwwwwwwt669yyyyyyyyy",
"yyyyyyyyyy9666r55www555iww5r5555r665000pXX000qXXq000XXXXXXt66iww5rriwwir55www55555r6669yyyyyyyyy",
"yyyyyyyyyy9666rr5www5rriww5rrrrrt66r000XXX000pXXq000XXXXXX666iww5rriwwirr5wwwrrrrrr6669yyyyyyyyy",
"yyyyyyyyyy9666rr5www5rriww5rrrrrt66r000XXX000pXXq00qXXXXXX666iww5rriwwirr5wwirrrrrr6669yyyyyyyyy",
"yyyyyyyyyy9666555555555555555t666666r555iiiwwiiiiwwiii5ttt666tttr555555555555555t666669yyyyyyyyy",
"yyyyyyyyyy966t555555555555555t666666666r55555555555555r666666666r5555555555555556666669yyyyyyyyy",
"yyyyyyyyyy966t555555555555555t666666666r55555555555555r666666666r55555555555555r6666669yyyyyyyyy",
"yyyyyyyyyy966ieeeqqqi559uuuuu9eeeuu9eeeeee0qqw5r0uuuuu9eeeuuueeeeee0qqX5rpuuuuuueeei669yyyyyyyyy",
"yyyyyyyyyy966w999000i55u77777y99u77y999999e00X5r977777y99u777u99999e00p5r0777777u99w669yyyyyyyyy",
"yyyyyyyyyy966w999000i55u77777y99u77y999999e00X5r977777y99u777u99999e00p5rq777777u99w669yyyyyyyyy",
"yyyyyyyyyy966ieee0005ttu77yuyu99uuyu9999ee000wtte77yuyu999uuu9999eee00pttq77yyuu999w669yyyyyyyyy",
"yyyyyyyyyy9665000000r66u77u999999999999000000i66e77y999999999999e00000p66q77y999999w669yyyyyyyyy",
"yyyyyyyyyy9665000000r66u77u999999999999000000i66e77y999999999999e00000p66q77y999999w669yyyyyyyyy",
"yyyyyyyyyy96650000005tt9uu9999999999999000000wt60uuu999999999999e00000pttpuuu999999i669yyyyyyyyy",
"yyyyyyyyyy9665000000i55q000000000000000000000X55p000000000000000000000p55w0000000005669yyyyyyyyy",
"yyyyyyyyyy9665000000i55q000000000000000000000X55p000000000000000000000p55w0000000005669yyyyyyyyy",
"yyyyyyyyyy96650000005rrq000000000000000000000wrrX000000000000000000000Xrrw0000000005669yyyyyyyyy",
"yyyyyyyyyy966tXXXXXXt66q00qXXq000XXp000XXXXXX566X000XXp000XXX000pXXXXXi66i000XXX0005669yyyyyyyyy",
"yyyyyyyyyy966tXXXXXXt66q00qXXq000XXp000XXXXXXr66X000XXp000XXX000pXXXXXi66i000XXX0005669yyyyyyyyy",
"yyyyyyyyyy966tXXXXXwt66p00pXXp00qXXX000XXXXXXr66w00qXXX000XXX000pXXXXXi66500qXXX0005669yyyyyyyyy",
"yyyyyyyyyy966t555t66666tttr555555555555555t66666t555555555555555555t666666ttt555555t669yyyyyyyyy"
};
