/* XPM */
static char *wall[] = {
/* columns rows colors chars-per-pixel */
"96 99 42 1 ",
"  c black",
". c #665A46",
"X c #515D66",
"o c #141619",
"O c #4C4334",
"+ c #332C22",
"@ c #A89575",
"# c #C1AB86",
"$ c #99876B",
"% c #807159",
"& c #605542",
"* c #6B5F4B",
"= c #5A4F3E",
"- c #766952",
"; c #483F31",
": c #41392C",
"> c #A49172",
", c #8F7F64",
"< c #574D3C",
"1 c #756751",
"2 c #4C3721",
"3 c #594027",
"4 c #3F2E1B",
"5 c #3C454C",
"6 c #282E33",
"7 c #A4ACB2",
"8 c #C1C7CC",
"9 c #869199",
"0 c #6B767F",
"q c #5E666B",
"w c #4B5359",
"e c #73797D",
"r c #394148",
"t c #333B41",
"y c #A4A9AE",
"u c #8C9297",
"i c #454F57",
"p c #5B646C",
"a c #3F3226",
"s c #4C3B2A",
"d c #33281E",
"f c white",
/* pixels */
"                                                                                                ",
" 555t666665XX0777777777777er5tooooooooooooooooooooooooooooooooooooot5re7777777777770XXi55555555 ",
" iiit6tttt5XX0777777777777er5tooooooooooooooooooooooooooooooooooooot5re7777777777770XXi55555555 ",
" uuu9eeuuu9XX07777777778889r5tooooooooooooooooooooooooooooooooooooot5r98887777777770XX099999e00 ",
" 777u99y77uXX0777777777888ur5tooooooooooooooooooooooooooooooooooooot5ru8887777777770XXe99999900 ",
" 777u99y77uXX0777777777888ur5tooooooooooooooooooooooooooooooooooooot5ru8887777777770XXe99999900 ",
" uuuu99uuu9XX0777777777888ur5tooooooooooooooooooooooooooooooooooooot5ru8887777777770XXe999eee00 ",
" u99999999eXX0777777777888ur5tooooooooooooooooooooooooooooooooooooot5ru8887777777770XXe99900000 ",
" u99999999eXX0777777777888ur5tooooooooooooooooooooooooooooooooooooot5ru8887777777770XXe99900000 ",
" e000000000XX0uyy777777888ur5r6666666666666666666666666666666666666r5ru888777777yyu0XX0000qqqqq ",
" XXXXXXXXXXXXq99uy77777888ur55555555555555555555555555555555555555555ru88877777yu99qXXXXXXXXXXX ",
" XXXXXXXXXXXXq99u7777778889trrrrrrrrrrrrrrrrrrrrrrrrrrrrrrrrrrrrrrrrrt9888777777u99qXXXXXXXXXXX ",
" 9uuuuu9eee00e999yyy777788y99eeee999999eee999eeeeeee999eee999999eeee99y887777yyy999e00eee9uuuuu ",
" 788888877y999999999y7777788887778888887778887777777888777888888777888877777y999999999y77888888 ",
" 788888877y999999999y7777788887778888887778887777777888777888888777888877777y999999999y77888888 ",
" 788888777yuuuuuuuuuy7777778877778888887778887777777888777888888777788777777yuuuuuuuuuy77788888 ",
" 7887777777777777777777777777777777777777777777777777777777777777777777777777777777777777777788 ",
" 7887777777777777777777777777777777777777777777777777777777777777777777777777777777777777777788 ",
" 7887777777777777777777yyy777777777777777777777777777777777777777777777yyy777777777777777777788 ",
" y777777777777777777777u99y7777777777777777777777777777777777777777777y99u777777777777777777777 ",
" y777777777777777777777u99y7777777777777777777777777777777777777777777y99u777777777777777777777 ",
" y777777777777777777777u99y7777777777777777777777777777777777777777777y99u777777777777777777777 ",
" 7887777777777777777777u999uuy7777777777777777777777777777777777777yuu999u777777777777777777788 ",
" 7887777777777777777777u99999u7777777777777777777777777777777777777u99999u777777777777777777788 ",
" 7887777777777777777777u99999u7777777777777777777777777777777777777u99999u777777777777777777788 ",
" 7887777777777777777777u99e00e9999999999999999999999999999999999999e00e99u777777777777777777788 ",
" 7887777777777777777777u990XXp0000000000000000000000000000000000000pXX099u777777777777777777788 ",
" 7887777777777777777777u990XXq0000000000000000000000000000000000000qXX099u777777777777777777788 ",
" 7777777777777777777777yyyeXXq0000000000000000000000000000000000000qXXeyyy777777777777777777777 ",
" y7777777777777777777777779XXq0000000000000000000000000000000000000qXX9777777777777777777777777 ",
" y777777777777777777777777eXXq0000000000000000000000000000000000000qXXe777777777777777777777777 ",
" 77777777777777777777777779XXpppppppppppppppppppppppppppppppppppppppXX9777777777777777777777777 ",
" 7887777777777777777777888uXXwr55555555555555555555555555555555555rwXXu888777777777777777777788 ",
" 7887777777777777777777888uXXw5555555555555555555555555555555555555wXXu888777777777777777777788 ",
" 7888777777777777777777888uXXw555555555555rrrrrrrrrr555555555555555wXXu888777777777777777777888 ",
" 7888887777888777777888888uXXw555555555555666666666t555555555555555wXXu888888777777888777788888 ",
" 7888888777888777777888888uXXw555555555555666666666t55555555555555rwXXu888888777777888777888888 ",
" 7888887yy7887yyyyyy8888889wXwiii555iiiiiirttrrrtttrii5555555XXXXXXXXw9888888yyyyyy7887yy788888 ",
" 0eeeeee00eeee00000eeeeeeep55X00q55ieeeeeeqqp0eeqppppqpwww55iuyyyyyer5peeeeeee00000eeee00eeeeee ",
" 0000000000000000000000000X55X00q55weeeeeeqqq0ee0qqqqqpwww55iy77777er5X000000000000000000000000 ",
" 0000000000000000000000000X55X00q5rieeeeeeqqq0ee0qqqqqpwww55iy77777er5X000000000000000000000000 ",
" 0000000000000000000000000X55X00q665eeeqqqqqqqqqqqqpwwwwwit6ry77uuu0r5X000000000000000000000000 ",
" 0000000000000000000000000X55X00q66reeeqqqqqqqqqqqqXwwwwwi66ty77u990r5X000000000000000000000000 ",
" 0000000000000000000000000X55X00q66reeeqqqqqqqqqqqqXwwwwwi66ty77u990r5X000000000000000000000000 ",
" Xwwq000000000000000000Xwwpqq000qrr5XXXXwwwwwwwwwwwwwwwwwwrr5e99eee0qqpwwX000000000000000000qww ",
" wr5q000000000000000000wrrp00000q555wwwwwwwwwwwwwwwwwwwwww555000000000prrw000000000000000000q55 ",
" w55q000000000000000000wrrp00000q555wwwwwwwwwwwwwwwwwwwwww555000000000p55w000000000000000000q55 ",
" 555wXXXXXXXXXXXXXXXXXXppppppppqXttrwww555wwwi55iwwi555555ttt000qpp000qwwwXXXXXXXXXXXXXXXXXXwtt ",
" 5555555555555555555555q00qXXXXXw66twww5rriww5rriwwirrrrrr666q00pXXq00qXXw555555555555555555t66 ",
" 5555555555555555555555q00qXXXXXw66twww5rriww5rriwwirrrrrr666000pXXq00qXXw555555555555555555r66 ",
" eeeeeeeeeqttr555555555XppXwwiii566tiii5r5iii5rr5ii5rrrttt666wXXwwwXppXwwi555555ttttttqeeeeeeee ",
" yyyyyyyyy9666555555555555555t666666555555555555555555r666666666r5555555555555556666669yyyyyyyy ",
" yyyyyyyyy9666rrr555555rrrrrrt666666rrrrrr555555rrrrrrt666666666trrr555555rrrrrr6666669yyyyyyyy ",
" yyyyyyyyy966rpppXww555q00000qXXpqqqppppppXwwi55X00000qXXXqqqXXXpppXwwi55w000000XXXt669yyyyyyyy ",
" yyyyyyyyy966w999000i55u77777y99u77y999999e00X5r977777y99uy77u99999e00p5rq77777y999w669yyyyyyyy ",
" yyyyyyyyy966w999000i55u77777y99u77y999999e00X5r977777y99uy77u99999e00p5rq777777999w669yyyyyyyy ",
" yyyyyyyyy966w999000ir5u77yyyu99uyyy999999e00Xrte777yyy999yyyu99999e00prrq777yyyu99w669yyyyyyyy ",
" yyyyyyyyy9665000000r66u77u999999999999e00000w66e77y999999999999e00000p66q77y999999w669yyyyyyyy ",
" yyyyyyyyy9665000000r66u77u999999999999000000w66e77y999999999999e00000p66q77y999999w669yyyyyyyy ",
" yyyyyyyyy9665000000r66uyyu999999999999000000w66eyyy999999999999e00000p66qyyy999999w669yyyyyyyy ",
" yyyyyyyyy9665000000ir50eee000000000000000000Xrrpeee000000000000000000prrweee0000005669yyyyyyyy ",
" yyyyyyyyy9665000000i55q000000000000000000000X55p000000000000000000000p55w0000000005669yyyyyyyy ",
" yyyyyyyyy9665000000i55q000000000000000000000Xrrp000000000000000000000p55w0000000005669yyyyyyyy ",
" yyyyyyyyy966rppppppt6tq00qppq000ppp000pppppp566X000ppp000ppp000qpppppw66i000ppp0005669yyyyyyyy ",
" yyyyyyyyy966tXXXXXXt66q00qXXq000XXp000XXXXXXr66X000XXp000XXX000pXXXXXi66i000XXX0005669yyyyyyyy ",
" yyyyyyyyy966tXXXXXXt66q00qXXq000XXp000XXXXXXr66X000XXp000XXX000pXXXXXi66i000XXX0005669yyyyyyyy ",
" yyyyyyyyy966tiii55r6665wwiiiwXXwiiiXXXiiiiiit665XXwiiiXXXiiiXXXwii5r5t66twwwiiiXXXt669yyyyyyyy ",
" yyyyyyyyy966t55r666666666t555555555555555555t66t555555555555555555t66666666655555r6669yyyyyyyy ",
" yyyyyyyyy9666r5r666666666t555555555rrrrrrrrr666trrrrrr555555555555t666666666r55555t669yyyyyyyy ",
" yyyyyyyyy966rpppwiiXXXwiiwwwwiii55weeeeee000eeee000000ppX555XpppppXiiwXXXiiwwwwiiit669yyyyyyyy ",
" yyyyyyyyy966ieeeqqqeeeqqqqqqXwwi55py77777u99y77y999999000i550eeeee0qq0eeeqqqqqqwwwt669yyyyyyyy ",
" yyyyyyyyy9665eeeqqqeeeqqqqqqXwwi55py77777u99y77y999999000i550eeeee0qqqee0qqqqqqwwwt669yyyyyyyy ",
" yyyyyyyyy9665000qqq000qqqpXXXwwirtXy77yyyu99uyyu9999990005rr0ee000qqqq000qqqXXXwwwt669yyyyyyyy ",
" yyyyyyyyy966rqqqqqqqqqqqqXwwwwwi66wy7yu999999999999000000t660eeqqqqqqqqqqqqpwwwwwwt669yyyyyyyy ",
" yyyyyyyyy966rqqqqqqqqqqqqXwwwwwi66wy77u999999999999000000t660eeqqqqqqqqqqqqpwwwwwwt669yyyyyyyy ",
" yyyyyyyyy966rppppppppppppXwwwwwi66wyyy9999999999999000000t6tq00qpppppppppppXwwwwwwt669yyyyyyyy ",
" yyyyyyyyy966twwwwwwwwwwwwwwwwwwi55i0000000000000000000000555wwwwwwwwwwwwwwwwwwwwwwt669yyyyyyyy ",
" yyyyyyyyy966twwwwwwwwwwwwwwwwwwi55i0000000000000000000000i55wwwwwwwwwwwwwwwwwwwwwwt669yyyyyyyy ",
" yyyyyyyyy966twwwwwwwwwwwwwwwwwwirri00000000000000000000005r5iwwwwwwwwwwwwwwwwwwwwwt669yyyyyyyy ",
" yyyyyyyyy9666r55www555iww5r5555r665000pXX000qXXq000XXXXXXt66iww5rriwwir55www55555r6669yyyyyyyy ",
" yyyyyyyyy9666rr5www5rriww5rrrrrt66r000XXX000pXXq000XXXXXX666iww5rriwwirr5wwwrrrrrr6669yyyyyyyy ",
" yyyyyyyyy9666rr5www5rriww5rrrrrt66r000XXX000pXXq00qXXXXXX666iww5rriwwirr5wwirrrrrr6669yyyyyyyy ",
" yyyyyyyyy9666555555555555555t666666r555iiiwwiiiiwwiii5ttt666tttr555555555555555t666669yyyyyyyy ",
" yyyyyyyyy966t555555555555555t666666666r55555555555555r666666666r5555555555555556666669yyyyyyyy ",
" yyyyyyyyy966t555555555555555t666666666r55555555555555r666666666r55555555555555r6666669yyyyyyyy ",
" yyyyyyyyy966ieeeqqqi559uuuuu9eeeuu9eeeeee0qqw5r0uuuuu9eeeuuueeeeee0qqX5rpuuuuuueeei669yyyyyyyy ",
" yyyyyyyyy966w999000i55u77777y99u77y999999e00X5r977777y99u777u99999e00p5r0777777u99w669yyyyyyyy ",
" yyyyyyyyy966w999000i55u77777y99u77y999999e00X5r977777y99u777u99999e00p5rq777777u99w669yyyyyyyy ",
" yyyyyyyyy966ieee0005ttu77yuyu99uuyu9999ee000wtte77yuyu999uuu9999eee00pttq77yyuu999w669yyyyyyyy ",
" yyyyyyyyy9665000000r66u77u999999999999000000i66e77y999999999999e00000p66q77y999999w669yyyyyyyy ",
" yyyyyyyyy9665000000r66u77u999999999999000000i66e77y999999999999e00000p66q77y999999w669yyyyyyyy ",
" yyyyyyyyy96650000005tt9uu9999999999999000000wt60uuu999999999999e00000pttpuuu999999i669yyyyyyyy ",
" yyyyyyyyy9665000000i55q000000000000000000000X55p000000000000000000000p55w0000000005669yyyyyyyy ",
" yyyyyyyyy9665000000i55q000000000000000000000X55p000000000000000000000p55w0000000005669yyyyyyyy ",
" yyyyyyyyy96650000005rrq000000000000000000000wrrX000000000000000000000Xrrw0000000005669yyyyyyyy ",
" yyyyyyyyy966tXXXXXXt66q00qXXq000XXp000XXXXXX566X000XXp000XXX000pXXXXXi66i000XXX0005669yyyyyyyy ",
" yyyyyyyyy966tXXXXXXt66q00qXXq000XXp000XXXXXXr66X000XXp000XXX000pXXXXXi66i000XXX0005669yyyyyyyy ",
" yyyyyyyyy966tXXXXXwt66p00pXXp00qXXX000XXXXXXr66w00qXXX000XXX000pXXXXXi66500qXXX0005669yyyyyyyy ",
"                                                                                                "
};
